<?xml version="1.0" encoding="UTF-8"?>
<svg xmlns="http://www.w3.org/2000/svg" xmlns:cc="http://creativecommons.org/ns#" xmlns:dc="http://purl.org/dc/elements/1.1/" xmlns:inkscape="http://www.inkscape.org/namespaces/inkscape" xmlns:rdf="http://www.w3.org/1999/02/22-rdf-syntax-ns#" xmlns:sodipodi="http://sodipodi.sourceforge.net/DTD/sodipodi-0.dtd" xmlns:svg="http://www.w3.org/2000/svg" version="1.1" id="Layer_1" x="0px" y="0px" width="220" height="220" viewBox="0 0 220 220" enable-background="new 0 0 223.489 220.489" xml:space="preserve" sodipodi:docname="hackspace-logo.svg" inkscape:version="0.92pre3 r">
  <metadata id="metadata12">
    <rdf:RDF>
      <cc:Work rdf:about="">
        <dc:format>image/svg+xml</dc:format>
        <dc:type rdf:resource="http://purl.org/dc/dcmitype/StillImage" />
        <dc:title />
      </cc:Work>
    </rdf:RDF>
  </metadata>
  <defs id="defs10" />
  <path style="fill:#195905;fill-opacity:1;stroke-width:1.27189755"
     id="logo"
     d="m 187.42396,32.576354 c -42.87821,-42.874396 -112.393767,-42.874396 -155.264347,0 -42.879484,42.878211 -42.879484,112.391236 0,155.266896 42.87058,42.87567 112.389957,42.87567 155.264347,0 42.87567,-42.87566 42.87567,-112.388685 0,-155.266896 z m -34.95429,114.891786 -25.04366,-25.03984 7.87686,-7.87687 -4.16546,-4.1642 -21.17074,21.17201 4.16037,4.16801 8.15287,-8.15668 25.05002,25.04113 -37.53878,37.53878 -25.046204,-25.04239 4.272304,-4.26849 -29.852708,-29.85653 -4.277392,4.27358 -25.039847,-25.04366 37.540057,-37.540065 25.041119,25.041119 -8.157951,8.155416 5.127019,5.12575 21.177093,-21.17329 -5.12448,-5.125747 -7.881947,7.880677 -25.042386,-25.043663 37.266593,-37.260239 25.0373,25.041119 -4.26721,4.273576 29.85144,29.853979 4.27485,-4.273576 25.04111,25.044944 z" />
</svg>
