<?xml version="1.0" encoding="UTF-8" standalone="no"?>
<svg
   xmlns:dc="http://purl.org/dc/elements/1.1/"
   xmlns:cc="http://creativecommons.org/ns#"
   xmlns:rdf="http://www.w3.org/1999/02/22-rdf-syntax-ns#"
   xmlns:svg="http://www.w3.org/2000/svg"
   xmlns="http://www.w3.org/2000/svg"
   height="135px"
   width="135px"
   xml:space="preserve"
   viewBox="0 0 135 135"
   y="0px"
   x="0px"
   id="Layer_1"
   version="1.0"><metadata
   id="metadata12"><rdf:RDF><cc:Work
       rdf:about=""><dc:format>image/svg+xml</dc:format><dc:type
         rdf:resource="http://purl.org/dc/dcmitype/StillImage" /></cc:Work></rdf:RDF></metadata><defs
   id="defs10" />
<style
   id="style2"
   type="text/css">
	.st0{fill:#195905;}
</style>

<g
   id="New_Symbol">
</g>
<path
   style="fill:#195905"
   d="m 115.3,19.8 c -26.4,-26.4 -69.1,-26.4 -95.5,0 -26.4,26.4 -26.4,69.1 0,95.5 26.4,26.4 69.1,26.4 95.5,0 26.3,-26.4 26.3,-69.1 0,-95.5 z M 93.8,90.5 78.4,75.1 l 4.8,-4.8 -2.6,-2.6 -13,13 2.6,2.6 5,-5 15.4,15.4 -23.1,23.1 -15.4,-15.5 2.6,-2.6 -18.3,-18.4 -2.6,2.6 -15.4,-15.4 23.1,-23.1 15.4,15.4 -5,5 3.2,3.2 13,-13 -3.2,-3.2 -4.8,4.8 -15.5,-15.3 22.9,-22.9 15.4,15.4 -2.6,2.6 18.4,18.4 2.6,-2.6 15.4,15.4 z"
   class="st0"
   id="path3" />
</svg>