<?xml version="1.0" standalone="no"?>
<!DOCTYPE svg PUBLIC "-//W3C//DTD SVG 20010904//EN"
 "http://www.w3.org/TR/2001/REC-SVG-20010904/DTD/svg10.dtd">
<svg version="1.0" xmlns="http://www.w3.org/2000/svg"
 width="700.000000pt" height="700.000000pt" viewBox="0 0 700.000000 700.000000"
 preserveAspectRatio="xMidYMid meet">
<metadata>
Created by potrace 1.11, written by Peter Selinger 2001-2013
</metadata>
<g transform="translate(0.000000,700.000000) scale(0.100000,-0.100000)"
fill="#000000" stroke="none">
<path d="M3278 6995 c-2 -1 -41 -5 -88 -9 -47 -4 -101 -9 -120 -12 -78 -11
-216 -34 -235 -38 -11 -2 -56 -12 -100 -21 -159 -33 -552 -159 -580 -186 -5
-5 -15 -9 -23 -9 -19 0 -312 -148 -407 -205 -294 -178 -456 -306 -695 -545
-167 -166 -174 -174 -313 -350 -157 -198 -333 -503 -450 -780 -71 -169 -167
-478 -191 -610 -12 -68 -28 -158 -32 -180 -3 -14 -7 -45 -10 -70 -3 -25 -7
-56 -9 -70 -27 -152 -26 -671 0 -821 2 -13 7 -46 10 -74 25 -239 121 -593 235
-865 125 -299 314 -617 506 -850 182 -221 380 -413 588 -573 55 -42 106 -81
112 -86 17 -13 195 -131 199 -131 1 0 34 -19 71 -42 382 -232 928 -409 1404
-456 160 -15 697 -7 810 12 14 3 43 7 65 10 22 4 51 8 65 11 14 2 36 6 50 9
14 2 36 7 50 10 14 3 36 8 50 10 14 2 54 12 90 21 36 9 72 19 80 20 72 17 293
88 355 115 11 5 45 19 75 31 81 32 345 162 425 210 72 42 223 142 306 201 167
118 418 351 580 538 216 249 428 582 552 870 8 19 24 56 36 82 11 26 21 54 21
61 0 7 4 17 9 23 27 28 154 479 177 629 4 28 9 52 9 55 1 3 5 32 9 65 5 33 10
69 12 79 26 143 25 698 -1 846 -2 14 -6 45 -9 70 -46 390 -223 904 -432 1257
-33 54 -61 103 -64 108 -11 23 -137 204 -183 265 -171 222 -366 423 -572 591
-103 85 -277 209 -370 266 -358 217 -739 370 -1120 448 -44 9 -89 19 -100 21
-11 2 -38 6 -60 9 -22 3 -50 7 -62 9 -12 3 -48 8 -80 11 -32 4 -76 9 -98 12
-44 5 -541 13 -547 8z m626 -1354 l395 -394 -68 -68 -68 -67 477 -477 477
-477 68 68 67 67 399 -399 399 -399 -593 -593 -593 -593 -385 385 c-212 211
-391 391 -398 400 -11 13 2 30 96 124 59 60 114 116 122 125 12 15 5 24 -55
81 l-68 64 -334 -334 c-298 -298 -333 -336 -321 -351 28 -34 111 -113 119
-113 4 0 62 54 128 120 66 66 125 120 131 120 6 0 188 -177 405 -394 l394
-393 -599 -599 -599 -599 -400 401 -399 401 68 67 68 68 -471 474 c-259 261
-474 474 -479 474 -4 0 -36 -29 -70 -64 l-63 -65 -400 400 -399 399 595 595
c327 327 598 595 602 595 4 0 185 -178 402 -395 l396 -396 -130 -130 -129
-130 81 -79 c45 -44 84 -80 87 -80 3 0 156 150 338 333 l333 333 -80 83 c-71
75 -82 82 -97 70 -10 -8 -66 -63 -125 -123 -96 -96 -110 -107 -125 -95 -9 8
-84 81 -167 162 -407 400 -616 611 -614 619 5 15 1173 1178 1180 1175 4 -1
185 -179 402 -396z"/>
</g>
</svg>
