<?xml version="1.0" standalone="no"?>
<!DOCTYPE svg PUBLIC "-//W3C//DTD SVG 20010904//EN"
 "http://www.w3.org/TR/2001/REC-SVG-20010904/DTD/svg10.dtd">
<svg version="1.0" xmlns="http://www.w3.org/2000/svg"
 width="700.000000pt" height="700.000000pt" viewBox="0 0 700.000000 700.000000"
 preserveAspectRatio="xMidYMid meet">
<metadata>
Created by potrace 1.14, written by Peter Selinger 2001-2017
</metadata>
<g transform="translate(0.000000,700.000000) scale(0.100000,-0.100000)"
fill="#000000" stroke="none">
<path d="M376 6800 c-11 -5 -13 -24 -17 -185 0 -5 2 -27 3 -47 2 -21 1 -38 -2
-38 -8 0 -5 -48 3 -56 3 -4 2 -14 -3 -23 -5 -10 -5 -23 -1 -30 5 -7 5 -30 1
-51 -5 -26 -3 -41 4 -44 7 -3 8 -7 1 -13 -11 -8 -12 -49 -2 -60 4 -3 2 -14 -3
-24 -7 -12 -6 -19 3 -23 9 -5 9 -7 0 -12 -7 -3 -9 -12 -6 -21 5 -12 3 -14 -7
-8 -9 6 -8 1 3 -15 11 -16 13 -28 7 -41 -7 -12 -6 -19 3 -23 7 -4 8 -8 2 -11
-11 -6 -10 -88 1 -107 5 -8 2 -9 -11 -4 -15 5 -16 4 -5 -9 12 -15 21 -125 10
-125 -8 0 -2 -88 6 -102 5 -8 2 -9 -11 -4 -18 7 -18 6 0 -14 10 -11 13 -20 8
-20 -13 0 -12 -32 2 -42 7 -5 7 -11 0 -15 -11 -8 -12 -49 -2 -60 4 -3 2 -14
-3 -24 -7 -12 -6 -19 3 -22 8 -4 9 -8 2 -14 -6 -4 -9 -19 -7 -33 4 -33 2 -92
-3 -100 -2 -3 0 -12 5 -19 4 -8 4 -27 0 -42 -5 -16 -5 -29 -1 -29 5 0 5 -18 1
-40 -5 -26 -3 -41 4 -44 7 -3 8 -7 1 -13 -6 -4 -9 -19 -8 -33 5 -33 3 -103 -2
-108 -2 -2 1 -15 6 -29 8 -22 7 -24 -7 -19 -14 6 -15 4 -4 -9 12 -15 21 -125
10 -125 -7 0 -3 -91 4 -97 3 -3 1 -14 -5 -24 -7 -13 -6 -19 1 -19 6 0 8 -5 4
-12 -10 -17 -11 -68 0 -68 5 0 2 -8 -5 -17 -12 -14 -12 -15 -1 -9 11 7 12 4 3
-11 -7 -14 -7 -23 1 -31 8 -8 9 -12 1 -12 -13 0 -12 -32 2 -42 7 -5 7 -11 0
-15 -11 -8 -12 -49 -2 -60 4 -3 2 -14 -3 -24 -7 -12 -6 -19 3 -22 8 -4 9 -8 2
-14 -11 -8 -12 -49 -2 -59 3 -3 2 -18 -3 -33 -4 -16 -4 -34 0 -41 4 -7 4 -26
0 -41 -5 -16 -5 -29 -1 -29 7 0 4 -90 -3 -98 -3 -2 0 -15 5 -29 8 -22 7 -24
-7 -19 -14 6 -15 4 -4 -9 12 -15 21 -125 10 -125 -8 0 -2 -88 6 -102 5 -8 2
-9 -11 -4 -18 7 -18 6 0 -14 10 -11 13 -20 8 -20 -13 0 -12 -32 2 -42 7 -5 7
-11 0 -15 -11 -8 -12 -49 -2 -60 4 -3 2 -14 -3 -24 -7 -12 -6 -19 3 -22 8 -4
9 -8 2 -14 -6 -4 -9 -19 -7 -33 4 -33 2 -92 -3 -100 -2 -3 0 -12 5 -19 4 -8 4
-27 0 -42 -5 -16 -5 -29 -1 -29 5 0 5 -18 1 -40 -5 -26 -3 -41 4 -44 7 -3 8
-7 1 -13 -6 -4 -9 -19 -8 -33 5 -33 3 -103 -2 -108 -2 -2 1 -15 6 -29 8 -22 7
-24 -7 -19 -14 6 -15 4 -4 -9 12 -15 21 -125 10 -125 -7 0 -3 -91 4 -97 3 -3
1 -14 -5 -24 -7 -13 -6 -19 1 -19 6 0 8 -5 4 -12 -10 -17 -11 -68 0 -68 5 0 2
-8 -5 -17 -12 -14 -12 -15 -1 -9 11 7 12 4 3 -11 -7 -14 -7 -23 1 -31 8 -8 9
-12 1 -12 -13 0 -12 -32 2 -42 7 -5 7 -11 0 -15 -11 -8 -12 -49 -2 -60 4 -3 2
-14 -3 -24 -7 -12 -6 -19 3 -22 8 -4 9 -8 2 -14 -11 -8 -12 -49 -2 -59 3 -3 2
-18 -3 -33 -4 -16 -4 -34 0 -41 4 -7 4 -26 0 -41 -5 -16 -5 -29 -1 -29 7 0 4
-90 -3 -98 -3 -2 0 -15 5 -29 8 -22 7 -24 -7 -19 -14 6 -15 4 -4 -9 12 -15 21
-125 10 -125 -8 0 -2 -88 6 -102 5 -8 2 -9 -11 -4 -18 7 -18 6 0 -14 10 -11
13 -20 8 -20 -13 0 -12 -32 2 -42 7 -5 7 -11 0 -15 -11 -8 -12 -49 -2 -60 4
-3 2 -14 -3 -24 -7 -12 -6 -19 3 -22 8 -4 9 -8 2 -14 -11 -9 -12 -44 -1 -61 3
-6 2 -14 -4 -17 -7 -4 -7 -12 -2 -18 4 -7 8 -42 8 -79 -1 -38 2 -68 5 -68 3 0
6 -6 7 -12 1 -7 4 -26 6 -43 3 -16 7 -39 8 -50 2 -11 7 -23 12 -27 6 -4 4 -13
-4 -22 -11 -14 -10 -16 6 -10 10 4 16 4 12 0 -7 -8 5 -41 53 -144 17 -34 27
-67 24 -72 -3 -6 1 -7 10 -4 9 4 15 3 13 -2 -3 -12 48 -91 83 -129 34 -35 35
-41 12 -54 -10 -6 -13 -11 -7 -11 5 0 14 4 20 10 6 6 39 -19 92 -68 45 -43 82
-75 82 -72 0 3 7 -4 15 -14 8 -11 15 -16 15 -12 0 4 15 -4 33 -18 19 -15 39
-26 45 -26 7 0 12 -4 12 -10 0 -5 3 -9 8 -8 10 2 62 -24 62 -32 0 -4 7 -7 15
-8 8 -1 22 -3 30 -4 8 -1 16 -7 19 -14 3 -8 12 -11 21 -8 8 3 15 1 15 -6 0 -6
-4 -8 -10 -5 -6 4 -7 -1 -3 -11 5 -13 -3 -10 -30 10 -25 19 -35 23 -31 12 3
-9 10 -16 15 -16 5 0 20 -10 34 -22 30 -26 54 -31 72 -16 9 7 13 7 13 -1 0 -6
5 -11 11 -11 8 0 8 4 0 14 -9 11 -8 15 5 20 21 8 24 8 24 -5 0 -5 -5 -7 -11
-4 -6 4 -5 -2 3 -14 7 -12 16 -21 20 -21 5 0 8 -5 8 -11 0 -5 -4 -7 -10 -4 -6
3 -7 -1 -4 -10 9 -22 17 -11 19 24 1 22 -2 28 -13 23 -10 -3 -13 -1 -8 7 7 11
54 10 73 -2 5 -3 38 -8 73 -11 35 -3 67 -11 71 -18 6 -9 9 -9 14 4 4 9 14 14
25 11 10 -3 16 -11 14 -18 -3 -7 2 -19 10 -28 9 -9 16 -20 16 -26 0 -19 18
-21 35 -5 15 15 17 15 30 -2 8 -11 15 -15 15 -10 0 4 9 -2 21 -15 l20 -24 -17
27 c-9 15 -20 25 -25 22 -5 -3 -9 -1 -9 5 0 5 6 11 12 14 7 3 2 5 -12 4 -14 0
-33 -7 -42 -15 -16 -14 -18 -13 -20 4 0 10 -1 28 0 39 0 11 -2 14 -4 8 -7 -16
-24 -17 -24 -3 0 19 29 22 45 6 9 -9 12 -16 6 -16 -6 0 -11 -5 -11 -11 0 -8 4
-8 15 1 8 6 20 8 26 4 7 -4 9 -3 5 4 -3 5 0 13 6 16 7 3 3 3 -9 1 -12 -3 -24
-2 -27 3 -2 4 38 8 90 9 63 0 94 -3 94 -11 0 -8 3 -8 8 0 10 14 225 14 234 0
5 -8 8 -8 8 0 0 15 230 15 230 0 0 -8 3 -8 8 0 10 14 225 14 234 0 6 -8 8 -8
8 0 0 8 31 11 98 10 53 -1 109 1 124 5 16 4 28 4 28 1 0 -4 50 -7 110 -6 76 1
110 -2 110 -10 0 -8 3 -8 8 0 10 15 232 15 232 0 0 -8 3 -8 8 0 10 14 225 14
234 0 5 -8 8 -8 8 0 0 7 84 10 265 10 249 0 265 -1 265 -18 0 -10 -5 -18 -11
-18 -6 0 -8 7 -5 16 6 14 4 15 -9 4 -14 -12 -14 -15 -1 -22 19 -11 46 0 40 17
-7 18 15 30 29 16 9 -9 8 -14 -3 -22 -13 -9 -13 -10 0 -6 8 2 14 11 14 20 -1
12 10 15 52 14 30 0 54 -5 54 -10 0 -6 -3 -7 -7 -4 -3 4 -12 2 -19 -4 -20 -17
21 -53 44 -39 14 10 14 11 1 7 -17 -6 -39 10 -39 26 0 5 7 4 15 -3 8 -6 19 -9
24 -6 11 7 25 -12 26 -34 0 -21 49 -19 53 3 2 9 -1 17 -7 17 -6 0 -8 -6 -5
-13 3 -8 -3 -13 -16 -13 -25 0 -25 8 -1 30 11 10 25 15 32 10 7 -4 10 -3 5 4
-3 5 0 12 6 15 7 2 1 4 -14 3 -14 0 -24 -4 -22 -7 2 -4 -2 -12 -10 -18 -11
-10 -14 -7 -12 13 1 22 5 24 54 23 44 0 52 -3 52 -19 0 -10 -5 -18 -11 -18 -6
0 -8 7 -5 16 6 14 4 15 -9 4 -14 -12 -14 -15 -1 -22 19 -11 46 0 40 17 -7 18
15 30 29 16 9 -9 8 -14 -3 -22 -13 -9 -13 -10 0 -6 8 2 14 11 14 20 -1 12 10
15 52 14 30 0 54 -5 54 -10 0 -6 -3 -7 -7 -4 -3 4 -12 2 -19 -4 -20 -17 21
-53 44 -39 14 10 14 11 1 7 -17 -6 -39 10 -39 26 0 5 7 4 15 -3 8 -6 19 -9 24
-6 11 7 25 -12 26 -34 0 -21 49 -19 53 3 2 9 -1 17 -7 17 -6 0 -8 -6 -5 -13 3
-8 -3 -13 -16 -13 -25 0 -25 8 -1 30 11 10 25 15 32 10 7 -4 10 -3 5 4 -3 5 0
12 6 15 7 2 1 4 -14 3 -14 0 -24 -4 -22 -7 2 -4 -2 -12 -10 -18 -11 -10 -14
-7 -12 13 1 22 5 24 54 23 44 0 52 -3 52 -19 0 -10 -5 -18 -11 -18 -6 0 -8 7
-5 16 6 14 4 15 -9 4 -14 -12 -14 -15 -1 -22 19 -11 46 0 40 17 -7 18 15 30
29 16 9 -9 8 -14 -3 -22 -13 -9 -13 -10 0 -6 8 2 14 11 14 20 -1 12 10 15 52
14 30 0 54 -5 54 -10 0 -6 -3 -7 -7 -4 -3 4 -12 2 -19 -4 -20 -17 21 -53 44
-39 14 10 14 11 1 7 -17 -6 -39 10 -39 26 0 5 7 4 15 -3 8 -6 19 -9 24 -6 11
7 25 -12 26 -34 0 -21 49 -19 53 3 2 9 -1 17 -7 17 -6 0 -8 -6 -5 -13 3 -8 -3
-13 -16 -13 -25 0 -25 8 -1 30 11 10 25 15 32 10 7 -4 10 -3 5 4 -3 5 0 12 6
15 7 2 1 4 -14 3 -14 0 -24 -4 -22 -7 2 -4 -2 -12 -10 -18 -11 -10 -14 -7 -12
13 1 22 5 24 54 23 44 0 52 -3 52 -19 0 -10 -5 -18 -11 -18 -6 0 -8 7 -5 16 6
14 4 15 -9 4 -14 -12 -14 -15 -1 -22 19 -11 46 0 40 17 -7 18 15 30 29 16 9
-9 8 -14 -3 -22 -13 -9 -13 -10 0 -6 8 2 14 11 14 20 -1 12 10 15 52 14 30 0
54 -5 54 -10 0 -6 -3 -7 -7 -4 -3 4 -12 2 -19 -4 -20 -17 21 -53 44 -39 14 10
14 11 1 7 -17 -6 -39 10 -39 26 0 5 7 4 15 -3 8 -6 19 -9 24 -6 11 7 25 -12
26 -34 0 -21 49 -19 53 3 2 9 -1 17 -7 17 -6 0 -8 -6 -5 -13 3 -8 -3 -13 -16
-13 -25 0 -25 8 -1 30 11 10 25 15 32 10 7 -4 10 -3 5 4 -3 5 0 12 6 15 7 2 1
4 -14 3 -14 0 -24 -4 -22 -7 2 -4 -2 -12 -10 -18 -11 -10 -14 -7 -12 13 1 22
5 24 54 23 44 0 52 -3 52 -19 0 -10 -5 -18 -11 -18 -6 0 -8 7 -5 16 6 14 4 15
-9 4 -14 -12 -14 -15 -1 -22 19 -11 46 0 40 17 -7 18 15 30 29 16 9 -9 8 -14
-3 -22 -13 -9 -13 -10 0 -6 8 2 14 11 14 20 -1 14 8 16 60 13 33 -2 67 1 74 7
6 5 12 6 12 1 0 -9 198 -9 207 0 3 3 12 -2 20 -10 9 -8 12 -18 9 -22 -4 -3
-11 0 -17 8 -8 13 -10 13 -19 0 -9 -13 -11 -13 -19 -1 -8 12 -11 12 -24 0 -21
-22 -38 -57 -29 -63 16 -10 47 1 50 17 2 10 -1 17 -7 17 -6 0 -8 -6 -5 -13 3
-8 -4 -13 -17 -14 -19 -2 -20 0 -6 20 15 23 62 31 83 15 14 -10 26 15 18 36
-4 11 3 14 30 12 20 -1 36 2 36 7 0 4 10 3 21 -4 12 -6 19 -7 15 -1 -6 10 43
24 56 16 10 -6 -2 -34 -14 -34 -6 0 -8 7 -5 14 4 10 1 13 -9 9 -11 -4 -12 -9
-3 -19 9 -11 8 -18 -1 -29 -22 -27 0 -16 25 13 14 15 22 34 19 44 -4 13 0 16
15 13 11 -2 23 1 26 6 4 5 11 7 16 4 5 -4 9 -2 9 3 0 5 11 12 25 14 29 6 31 0
10 -28 -22 -29 -18 -40 5 -11 11 14 20 32 20 41 0 9 7 16 15 16 8 0 18 0 22 1
4 0 9 -5 12 -12 2 -7 -1 -9 -8 -5 -6 4 -11 2 -11 -4 0 -7 6 -10 13 -7 6 2 11
15 10 28 -3 23 -2 23 12 5 8 -11 15 -16 16 -10 0 5 4 0 9 -11 7 -16 9 -17 9
-3 1 9 -7 22 -16 27 -16 9 -16 12 -3 20 8 6 25 8 38 4 22 -5 52 11 52 29 0 5
-7 2 -16 -6 -8 -9 -21 -16 -27 -16 -7 0 -1 9 13 20 25 19 45 13 45 -13 0 -7
10 -12 22 -13 15 -1 20 3 15 14 -4 11 -7 12 -10 4 -2 -7 -8 -12 -13 -12 -6 0
-8 4 -4 9 3 5 1 12 -5 16 -14 9 -12 25 3 25 7 0 20 9 30 20 9 11 26 20 37 20
12 0 19 3 17 8 -2 4 8 18 21 32 14 14 22 19 18 12 -4 -7 -4 -12 1 -11 21 4 34
-2 27 -13 -4 -6 -3 -8 4 -5 12 8 10 32 -3 44 -4 4 -5 2 -1 -5 4 -6 2 -12 -3
-12 -6 0 -11 4 -11 9 0 17 20 23 35 11 9 -8 15 -8 15 -2 0 6 -5 12 -12 14 -13
5 -2 28 13 28 6 0 8 -4 5 -8 -2 -4 0 -14 5 -22 7 -11 8 -6 5 15 -4 19 0 35 11
47 16 18 39 25 29 9 -4 -5 4 -6 16 -3 19 5 20 7 6 10 -22 4 -22 11 -2 37 13
17 16 18 25 5 8 -12 9 -10 4 7 -6 20 4 38 43 79 7 8 10 14 5 14 -4 0 -3 4 3 8
5 4 18 24 28 45 9 20 21 35 26 32 5 -3 7 4 5 15 -2 11 0 20 6 20 5 0 8 3 7 8
-2 4 4 25 14 47 9 22 19 48 22 58 4 11 11 15 18 11 10 -5 10 -4 2 5 -9 9 -8
24 2 58 8 25 15 58 16 74 1 15 5 26 9 24 3 -3 6 8 6 23 2 162 9 282 18 282 6
0 6 3 -1 8 -17 11 -13 228 4 224 8 -1 11 2 7 8 -3 6 -10 8 -14 5 -5 -2 -8 33
-8 80 1 50 5 81 11 78 5 -4 6 -1 0 8 -12 19 -17 62 -6 55 5 -3 9 1 9 9 0 8 -3
12 -7 10 -4 -2 -7 33 -7 80 1 50 5 81 11 78 5 -4 6 -1 0 8 -12 19 -17 62 -6
55 5 -3 9 1 9 9 0 8 -3 12 -7 10 -3 -2 -6 14 -7 36 0 23 4 39 11 39 8 0 8 2 0
8 -15 9 -14 144 1 154 7 5 7 8 -1 8 -7 0 -11 63 -10 199 0 125 4 198 10 194 5
-4 6 -1 0 8 -12 19 -17 62 -6 55 5 -3 9 1 9 9 0 8 -3 12 -7 10 -4 -2 -7 33 -7
80 1 50 5 81 11 78 5 -4 6 -1 0 8 -12 19 -17 62 -6 55 5 -3 9 1 9 9 0 8 -3 12
-7 10 -3 -2 -6 14 -7 36 0 23 4 39 11 39 8 0 8 2 0 8 -15 9 -14 144 1 154 7 5
6 8 -1 8 -8 0 -11 35 -10 113 1 86 5 111 14 109 8 -1 11 2 7 8 -3 6 -10 8 -14
5 -5 -2 -8 33 -8 80 1 50 5 81 11 78 5 -4 6 -1 0 8 -12 19 -17 62 -6 55 5 -3
9 1 9 9 0 8 -3 12 -7 10 -4 -2 -7 33 -7 80 1 50 5 81 11 78 5 -4 6 -1 0 8 -12
19 -17 62 -6 55 5 -3 9 1 9 9 0 8 -3 12 -7 10 -4 -2 -6 31 -6 73 1 58 4 76 14
74 8 -1 11 2 7 8 -3 6 -10 8 -14 5 -5 -2 -8 33 -8 80 1 50 5 81 11 78 5 -4 6
-1 0 8 -12 19 -17 62 -6 55 5 -3 9 1 9 9 0 8 -3 12 -7 10 -4 -2 -7 33 -7 80 1
50 5 81 11 78 5 -4 6 -1 0 8 -12 19 -17 62 -6 55 5 -3 9 1 9 9 0 8 -3 12 -7
10 -3 -2 -6 14 -7 36 0 23 4 39 11 39 8 0 8 2 0 8 -15 9 -14 144 1 154 7 5 7
8 -1 8 -7 0 -10 72 -10 233 1 186 4 231 14 229 8 -1 11 2 7 8 -3 6 -10 8 -15
5 -7 -5 -11 31 -14 142 -1 22 -4 39 -7 37 -4 -2 -9 13 -13 34 -14 89 -71 234
-129 327 -206 332 -531 522 -917 536 l-65 3 -3 -144 c-2 -94 -7 -149 -15 -159
-9 -12 -9 -13 1 -7 9 5 12 -6 12 -48 0 -34 -5 -56 -12 -59 -10 -4 -10 -6 0 -6
6 -1 12 -8 12 -16 0 -8 -6 -15 -12 -15 -9 0 -10 -2 -2 -8 16 -10 16 -104 1
-114 -9 -6 -9 -8 1 -8 6 0 12 -5 12 -11 0 -6 7 -17 15 -26 8 -8 13 -19 9 -24
-3 -5 -2 -9 3 -8 23 4 35 -2 29 -17 -4 -10 -2 -13 6 -8 8 5 9 2 5 -9 -3 -9 -1
-19 5 -23 7 -4 8 -3 4 4 -10 16 5 15 26 -2 11 -8 14 -16 8 -22 -6 -6 -2 -16
10 -27 11 -9 20 -13 20 -7 0 5 -8 14 -17 19 -10 6 -13 11 -7 11 14 0 123 -107
116 -115 -3 -3 1 -5 9 -5 10 -1 8 -5 -5 -15 -11 -8 -17 -18 -13 -21 3 -4 13 1
22 10 17 16 35 14 35 -5 0 -6 7 -17 15 -25 8 -9 15 -13 15 -10 0 3 9 -2 19
-11 11 -9 18 -21 14 -25 -3 -5 5 -12 16 -15 l22 -6 -21 -14 c-26 -18 -22 -35
11 -40 18 -2 20 -1 9 6 -8 5 -18 7 -22 5 -4 -3 -8 0 -8 6 0 20 32 24 46 6 6
-10 16 -17 21 -17 4 1 8 -4 8 -10 0 -7 9 -15 20 -20 11 -4 16 -8 11 -8 -6 -1
4 -11 20 -23 17 -13 29 -29 26 -37 -3 -8 0 -11 6 -7 7 4 8 -3 3 -21 -4 -16 -5
-41 -2 -58 8 -37 7 -163 -1 -171 -4 -3 -3 -18 1 -32 6 -22 7 -87 1 -87 -1 0
-3 -8 -5 -17 -2 -10 1 -18 6 -18 6 0 5 -8 -1 -20 -8 -14 -8 -20 0 -20 8 0 8
-6 0 -20 -6 -11 -7 -20 -3 -20 7 0 9 -103 3 -120 -7 -20 -7 -40 1 -40 6 0 5
-8 -1 -20 -8 -14 -8 -20 0 -20 8 0 8 -6 0 -20 -6 -12 -7 -20 -1 -20 28 0 -24
-59 -254 -288 -161 -161 -259 -251 -266 -246 -7 4 -9 3 -6 -2 3 -6 2 -16 -3
-24 -7 -12 -12 -12 -21 -3 -9 9 -9 16 2 29 8 11 9 15 2 11 -9 -6 -12 2 -11 27
1 21 5 33 11 29 6 -4 7 -1 1 8 -4 8 -9 93 -10 189 -1 149 2 177 15 188 13 10
13 11 1 7 -13 -5 -15 31 -15 282 l0 288 -107 110 -108 111 -149 -1 -149 0 -90
-87 c-134 -130 -128 -118 -127 -237 0 -63 -3 -101 -10 -101 -7 0 -7 -3 0 -8
15 -10 12 -58 -4 -54 -7 1 -10 -2 -6 -8 3 -6 10 -8 14 -5 12 7 8 -39 -4 -47
-7 -5 -7 -8 0 -8 17 0 12 -149 -5 -162 -12 -8 -12 -9 2 -5 13 5 16 1 13 -15
-2 -11 -10 -27 -17 -37 -11 -14 -11 -14 3 -4 13 11 15 2 14 -75 -1 -49 -5 -93
-8 -99 -4 -7 -3 -14 3 -18 7 -4 6 -13 -1 -27 -6 -11 -7 -18 -2 -15 6 4 10 -14
9 -42 0 -27 -4 -47 -8 -45 -4 2 -10 0 -13 -6 -4 -6 -1 -9 6 -8 9 2 12 -18 11
-74 0 -100 0 -98 -13 -98 -6 0 -9 7 -6 14 4 9 1 13 -6 10 -17 -6 -541 522
-526 531 8 6 8 10 -2 15 -10 7 -10 11 0 24 8 9 10 16 5 16 -10 0 -11 131 -1
147 4 6 1 13 -5 16 -10 3 -10 7 1 20 8 10 9 17 3 17 -12 0 -10 38 2 58 4 7 3
12 -1 12 -10 0 -9 103 1 119 4 6 3 11 -2 11 -5 0 -9 7 -9 15 0 8 4 12 9 9 4
-3 8 0 8 5 0 6 -5 11 -11 11 -8 0 -7 6 2 17 8 9 10 14 4 11 -11 -7 -12 132 -1
151 4 6 2 11 -4 11 -6 0 -8 5 -5 10 4 6 11 8 16 5 5 -4 9 -1 9 4 0 6 -7 11
-15 11 -12 0 -13 4 -6 18 5 9 11 21 13 27 1 5 6 9 11 8 4 -2 7 2 7 7 0 6 9 19
21 31 18 18 25 19 46 10 13 -6 22 -7 19 -2 -4 5 0 12 6 15 7 3 3 3 -9 0 -14
-3 -23 -1 -23 6 0 16 30 24 43 11 6 -6 15 -11 20 -11 5 0 -1 8 -13 18 l-23 19
21 15 c12 8 19 18 15 21 -3 4 1 7 11 7 9 0 14 -4 11 -10 -3 -5 -2 -10 3 -10 5
0 12 9 15 20 3 13 1 18 -6 13 -7 -4 -6 1 2 10 20 25 30 21 26 -10 -2 -16 -2
-22 1 -15 3 6 10 12 15 12 6 0 7 -5 3 -12 -5 -7 -3 -8 6 -3 10 6 10 10 -2 19
-21 15 -14 45 18 75 15 14 23 20 19 13 -6 -11 -3 -12 13 -3 25 13 35 14 27 2
-9 -15 15 -25 28 -12 9 9 8 11 -6 5 -12 -4 -17 -2 -15 7 2 8 -4 13 -15 13 -23
-2 -22 9 5 32 12 10 19 14 15 8 -3 -6 0 -20 9 -30 15 -18 15 -18 6 1 -13 28
-6 43 51 101 32 33 56 50 66 46 9 -3 12 -1 7 6 -4 7 -2 12 4 12 6 0 9 4 5 9
-9 15 14 24 30 11 9 -8 15 -8 20 0 4 6 1 9 -6 8 -6 -2 -14 3 -17 11 -3 10 0
12 14 7 10 -4 15 -4 11 0 -4 4 0 18 8 31 14 20 20 151 15 308 0 11 0 31 1 45
0 14 0 32 0 40 -1 8 -2 54 -2 103 -2 72 -4 87 -18 88 -81 3 -4325 3 -4335 -1z
m773 -6256 c2 -2 -2 -10 -9 -19 -10 -12 -27 -14 -58 -6 -1 1 2 10 8 21 8 16
17 19 33 14 12 -3 24 -8 26 -10z m2988 -61 c2 -6 -8 -10 -22 -10 -21 0 -23 2
-14 14 13 15 31 13 36 -4z m320 0 c2 -6 -8 -10 -22 -10 -21 0 -23 2 -14 14 13
15 31 13 36 -4z m320 0 c2 -6 -8 -10 -22 -10 -21 0 -23 2 -14 14 13 15 31 13
36 -4z m320 0 c2 -6 -8 -10 -22 -10 -21 0 -23 2 -14 14 13 15 31 13 36 -4z"/>
<path d="M1110 540 c0 -5 5 -10 11 -10 5 0 7 5 4 10 -3 6 -8 10 -11 10 -2 0
-4 -4 -4 -10z"/>
<path d="M4755 6480 c3 -5 8 -10 11 -10 2 0 4 5 4 10 0 6 -5 10 -11 10 -5 0
-7 -4 -4 -10z"/>
<path d="M340 6400 c-9 -6 -10 -10 -3 -10 6 0 15 5 18 10 8 12 4 12 -15 0z"/>
<path d="M315 6309 c-4 -6 -5 -12 -2 -15 2 -3 7 2 10 11 7 17 1 20 -8 4z"/>
<path d="M4736 6142 c-3 -5 1 -9 9 -9 8 0 12 4 9 9 -3 4 -7 8 -9 8 -2 0 -6 -4
-9 -8z"/>
<path d="M5534 6126 c1 -8 5 -18 8 -22 4 -3 5 1 4 10 -1 8 -5 18 -8 22 -4 3
-5 -1 -4 -10z"/>
<path d="M4614 6095 c-4 -8 -10 -12 -15 -9 -5 3 -6 -3 -2 -12 4 -12 3 -15 -5
-10 -7 4 -19 0 -28 -8 -8 -9 -12 -16 -7 -16 4 0 2 -4 -6 -9 -17 -11 -25 -48
-12 -55 5 -3 15 2 22 12 13 16 12 16 -4 3 -17 -13 -18 -13 -15 4 4 26 39 60
60 59 11 -1 14 4 10 14 -3 10 -1 13 6 8 8 -5 10 -1 5 10 -5 13 -3 15 7 9 9 -5
11 -4 6 3 -10 16 -15 15 -22 -3z"/>
<path d="M4696 6075 c-9 -26 -7 -32 5 -12 6 10 9 21 6 23 -2 3 -7 -2 -11 -11z"/>
<path d="M5550 6086 c0 -2 7 -7 16 -10 8 -3 12 -2 9 4 -6 10 -25 14 -25 6z"/>
<path d="M5590 6053 c5 -2 8 -9 4 -14 -3 -5 0 -9 6 -9 15 0 7 23 -8 26 -7 1
-8 0 -2 -3z"/>
<path d="M4625 6040 c-3 -6 1 -7 9 -4 18 7 21 14 7 14 -6 0 -13 -4 -16 -10z"/>
<path d="M4588 6028 c-12 -9 -13 -19 -7 -33 l9 -20 -3 20 c-1 11 4 25 13 32 8
7 12 13 9 13 -3 0 -12 -6 -21 -12z"/>
<path d="M5535 6020 c-3 -5 -1 -10 4 -10 6 0 11 5 11 10 0 6 -2 10 -4 10 -3 0
-8 -4 -11 -10z"/>
<path d="M5654 6018 c-4 -7 -4 -10 1 -6 4 4 14 0 21 -10 7 -9 14 -15 17 -12 2
3 -4 13 -13 23 -14 15 -20 16 -26 5z"/>
<path d="M5627 6007 c-3 -8 1 -14 8 -14 7 0 11 6 8 14 -3 7 -6 13 -8 13 -2 0
-5 -6 -8 -13z"/>
<path d="M4635 5989 c-4 -6 -5 -12 -2 -15 2 -3 7 2 10 11 7 17 1 20 -8 4z"/>
<path d="M5656 5981 c-3 -5 1 -14 9 -21 10 -9 15 -9 15 -1 0 6 -5 11 -11 11
-5 0 -7 5 -4 10 3 6 4 10 1 10 -3 0 -7 -4 -10 -9z"/>
<path d="M5606 5965 c-18 -14 -18 -14 1 -12 11 0 20 7 20 14 0 7 -1 13 -1 13
-1 0 -9 -7 -20 -15z"/>
<path d="M5703 5969 c9 -5 17 -15 17 -21 0 -7 -4 -7 -13 0 -10 8 -13 5 -14
-16 0 -15 1 -19 4 -9 2 9 9 15 14 11 5 -3 12 2 16 11 6 17 -11 35 -32 35 -5
-1 -2 -5 8 -11z"/>
<path d="M4556 5961 c-3 -4 6 -7 19 -7 14 0 22 2 19 5 -8 8 -34 10 -38 2z"/>
<path d="M5652 5940 c2 -9 -3 -14 -12 -12 -8 2 -11 0 -7 -4 13 -14 35 -12 33
2 -1 7 -6 17 -10 21 -4 4 -6 1 -4 -7z"/>
<path d="M4526 5925 c-18 -14 -18 -14 1 -12 11 0 20 7 20 14 0 7 -1 13 -1 13
-1 0 -9 -7 -20 -15z"/>
<path d="M4440 5918 c0 -9 -6 -19 -12 -21 -10 -4 -10 -6 0 -6 14 -1 28 26 18
36 -3 4 -6 -1 -6 -9z"/>
<path d="M4468 5923 c7 -3 16 -2 19 1 4 3 -2 6 -13 5 -11 0 -14 -3 -6 -6z"/>
<path d="M5716 5897 c3 -10 9 -15 12 -12 3 3 0 11 -7 18 -10 9 -11 8 -5 -6z"/>
<path d="M315 5891 c-3 -5 -2 -12 3 -15 5 -3 9 1 9 9 0 17 -3 19 -12 6z"/>
<path d="M5750 5890 c0 -5 7 -7 15 -4 8 4 15 8 15 10 0 2 -7 4 -15 4 -8 0 -15
-4 -15 -10z"/>
<path d="M4470 5878 c0 -6 3 -8 7 -5 3 4 11 2 18 -3 8 -7 12 -6 12 3 0 7 -9
14 -19 14 -10 1 -18 -3 -18 -9z"/>
<path d="M5780 5880 c-9 -6 -10 -10 -3 -10 6 0 15 5 18 10 8 12 4 12 -15 0z"/>
<path d="M4437 5869 c7 -7 15 -10 18 -7 3 3 -2 9 -12 12 -14 6 -15 5 -6 -5z"/>
<path d="M5655 5871 c-3 -5 -2 -12 3 -15 5 -3 9 1 9 9 0 17 -3 19 -12 6z"/>
<path d="M5715 5860 c3 -5 8 -10 11 -10 2 0 4 5 4 10 0 6 -5 10 -11 10 -5 0
-7 -4 -4 -10z"/>
<path d="M5790 5849 c-7 -11 -9 -23 -7 -26 3 -2 8 5 12 16 3 12 11 19 16 16 5
-4 9 -1 9 4 0 18 -19 12 -30 -10z"/>
<path d="M5830 5849 c0 -5 5 -7 10 -4 6 3 10 8 10 11 0 2 -4 4 -10 4 -5 0 -10
-5 -10 -11z"/>
<path d="M4439 5848 c-6 -20 -6 -39 0 -42 4 -3 7 6 7 20 0 20 -4 32 -7 22z"/>
<path d="M4493 5831 c0 -11 5 -18 9 -15 4 3 5 11 1 19 -7 21 -12 19 -10 -4z"/>
<path d="M4375 5819 c-4 -6 -5 -12 -2 -15 2 -3 7 2 10 11 7 17 1 20 -8 4z"/>
<path d="M5830 5820 c0 -5 5 -10 10 -10 6 0 10 5 10 10 0 6 -4 10 -10 10 -5 0
-10 -4 -10 -10z"/>
<path d="M4336 5805 c-3 -8 -1 -15 4 -15 6 0 10 7 10 15 0 8 -2 15 -4 15 -2 0
-6 -7 -10 -15z"/>
<path d="M4390 5800 c0 -5 5 -10 11 -10 5 0 7 5 4 10 -3 6 -8 10 -11 10 -2 0
-4 -4 -4 -10z"/>
<path d="M5793 5803 c4 -3 2 -11 -3 -18 -7 -8 -5 -12 5 -12 8 0 11 5 8 10 -4
7 1 8 12 3 15 -5 16 -4 5 9 -7 8 -17 15 -23 15 -6 0 -7 -3 -4 -7z"/>
<path d="M4356 5782 c-3 -4 4 -9 15 -9 23 -2 25 3 4 10 -8 4 -16 3 -19 -1z"/>
<path d="M4430 5779 c0 -5 5 -7 10 -4 6 3 10 8 10 11 0 2 -4 4 -10 4 -5 0 -10
-5 -10 -11z"/>
<path d="M5735 5780 c-3 -5 -1 -10 4 -10 6 0 11 5 11 10 0 6 -2 10 -4 10 -3 0
-8 -4 -11 -10z"/>
<path d="M4315 5749 c-4 -6 -5 -12 -2 -15 2 -3 7 2 10 11 7 17 1 20 -8 4z"/>
<path d="M5856 5751 c-4 -5 3 -7 14 -4 23 6 26 13 6 13 -8 0 -17 -4 -20 -9z"/>
<path d="M4242 5738 c-7 -7 -12 -19 -11 -27 0 -9 4 -6 10 8 9 23 10 24 25 5
14 -18 15 -18 4 4 -13 26 -12 26 -28 10z"/>
<path d="M5895 5741 c-3 -5 0 -13 6 -17 8 -5 9 -3 4 6 -6 10 -4 12 8 7 10 -3
17 -2 17 3 0 13 -27 13 -35 1z"/>
<path d="M5932 5724 c-7 -8 -8 -14 -3 -14 10 0 25 19 20 25 -2 1 -10 -3 -17
-11z"/>
<path d="M4293 5715 c0 -7 6 -11 14 -8 7 3 13 6 13 8 0 2 -6 5 -13 8 -8 3 -14
-1 -14 -8z"/>
<path d="M5815 5721 c-3 -5 -2 -12 3 -15 5 -3 9 1 9 9 0 17 -3 19 -12 6z"/>
<path d="M5955 5710 c-5 -9 11 -60 20 -60 2 0 0 12 -5 26 -13 34 -13 39 5 24
9 -7 15 -8 15 -2 0 13 -28 23 -35 12z"/>
<path d="M4253 5703 c4 -6 1 -14 -5 -16 -10 -4 -10 -6 0 -6 7 -1 10 -6 6 -13
-4 -6 -3 -8 4 -5 12 8 10 32 -3 44 -4 4 -5 3 -2 -4z"/>
<path d="M4200 5680 c-8 -5 -10 -10 -5 -10 6 0 17 5 25 10 8 5 11 10 5 10 -5
0 -17 -5 -25 -10z"/>
<path d="M5993 5656 c0 -18 3 -24 9 -18 7 7 7 16 0 28 -8 14 -9 13 -9 -10z"/>
<path d="M4215 5660 c-3 -6 1 -7 9 -4 18 7 21 14 7 14 -6 0 -13 -4 -16 -10z"/>
<path d="M5906 5658 c3 -5 10 -6 15 -3 13 9 11 12 -6 12 -8 0 -12 -4 -9 -9z"/>
<path d="M4295 5621 c-3 -5 -2 -12 3 -15 5 -3 9 1 9 9 0 17 -3 19 -12 6z"/>
<path d="M5953 5615 c0 -8 4 -12 9 -9 5 3 6 10 3 15 -9 13 -12 11 -12 -6z"/>
<path d="M4195 5600 c-5 -8 42 -7 49 1 3 3 -6 5 -20 5 -14 0 -27 -3 -29 -6z"/>
<path d="M310 5579 c0 -5 5 -7 10 -4 6 3 10 8 10 11 0 2 -4 4 -10 4 -5 0 -10
-5 -10 -11z"/>
<path d="M4195 5569 c-4 -6 -5 -12 -2 -15 2 -3 7 2 10 11 7 17 1 20 -8 4z"/>
<path d="M6000 5571 c0 -6 4 -13 10 -16 6 -3 7 1 4 9 -7 18 -14 21 -14 7z"/>
<path d="M6679 5373 c-13 -16 -12 -17 4 -4 16 13 21 21 13 21 -2 0 -10 -8 -17
-17z"/>
<path d="M315 4931 c-3 -5 -2 -12 3 -15 5 -3 9 1 9 9 0 17 -3 19 -12 6z"/>
<path d="M4686 4718 c3 -5 10 -6 15 -3 13 9 11 12 -6 12 -8 0 -12 -4 -9 -9z"/>
<path d="M310 4619 c0 -5 5 -7 10 -4 6 3 10 8 10 11 0 2 -4 4 -10 4 -5 0 -10
-5 -10 -11z"/>
<path d="M4696 4602 c-2 -4 -1 -14 4 -22 7 -11 9 -9 7 8 -1 24 -3 26 -11 14z"/>
<path d="M4675 4481 c-3 -5 -2 -12 3 -15 5 -3 9 1 9 9 0 17 -3 19 -12 6z"/>
<path d="M5495 4460 c-3 -5 -1 -10 4 -10 6 0 11 5 11 10 0 6 -2 10 -4 10 -3 0
-8 -4 -11 -10z"/>
<path d="M4695 4440 c-3 -5 -1 -10 4 -10 6 0 11 5 11 10 0 6 -2 10 -4 10 -3 0
-8 -4 -11 -10z"/>
<path d="M315 4389 c-4 -6 -5 -12 -2 -15 2 -3 7 2 10 11 7 17 1 20 -8 4z"/>
<path d="M337 4235 c-4 -8 -3 -16 1 -19 4 -3 9 4 9 15 2 23 -3 25 -10 4z"/>
<path d="M315 3971 c-3 -5 -2 -12 3 -15 5 -3 9 1 9 9 0 17 -3 19 -12 6z"/>
<path d="M6679 3773 c-13 -16 -12 -17 4 -4 9 7 17 15 17 17 0 8 -8 3 -21 -13z"/>
<path d="M310 3659 c0 -5 5 -7 10 -4 6 3 10 8 10 11 0 2 -4 4 -10 4 -5 0 -10
-5 -10 -11z"/>
<path d="M315 3011 c-3 -5 -2 -12 3 -15 5 -3 9 1 9 9 0 17 -3 19 -12 6z"/>
<path d="M6679 2813 c-13 -16 -12 -17 4 -4 9 7 17 15 17 17 0 8 -8 3 -21 -13z"/>
<path d="M310 2699 c0 -5 5 -7 10 -4 6 3 10 8 10 11 0 2 -4 4 -10 4 -5 0 -10
-5 -10 -11z"/>
<path d="M315 2469 c-4 -6 -5 -12 -2 -15 2 -3 7 2 10 11 7 17 1 20 -8 4z"/>
<path d="M337 2315 c-4 -8 -3 -16 1 -19 4 -3 9 4 9 15 2 23 -3 25 -10 4z"/>
<path d="M315 2051 c-3 -5 -2 -12 3 -15 5 -3 9 1 9 9 0 17 -3 19 -12 6z"/>
<path d="M6679 1853 c-13 -16 -12 -17 4 -4 16 13 21 21 13 21 -2 0 -10 -8 -17
-17z"/>
<path d="M305 1740 c-3 -6 1 -7 9 -4 18 7 21 14 7 14 -6 0 -13 -4 -16 -10z"/>
<path d="M6656 1382 c-3 -5 1 -9 9 -9 8 0 12 4 9 9 -3 4 -7 8 -9 8 -2 0 -6 -4
-9 -8z"/>
<path d="M436 1141 c-3 -5 2 -15 12 -22 15 -12 16 -12 5 2 -7 9 -10 19 -6 22
3 4 4 7 0 7 -3 0 -8 -4 -11 -9z"/>
<path d="M453 1087 c0 -8 6 -14 14 -14 9 0 10 4 2 14 -6 7 -12 13 -14 13 -1 0
-2 -6 -2 -13z"/>
<path d="M402 1058 c-7 -7 -12 -17 -12 -22 0 -6 5 -3 11 7 6 9 15 14 21 11 7
-4 8 -2 4 4 -9 15 -9 15 -24 0z"/>
<path d="M6531 1051 c-8 -5 -9 -11 -3 -15 5 -3 12 1 16 9 6 17 6 18 -13 6z"/>
<path d="M493 1023 c4 -3 1 -13 -6 -22 -11 -14 -10 -14 5 -2 16 12 16 31 1 31
-4 0 -3 -3 0 -7z"/>
<path d="M6576 1018 c3 -5 10 -6 15 -3 13 9 11 12 -6 12 -8 0 -12 -4 -9 -9z"/>
<path d="M455 980 c-3 -5 -1 -10 4 -10 6 0 11 5 11 10 0 6 -2 10 -4 10 -3 0
-8 -4 -11 -10z"/>
<path d="M6475 979 c-4 -6 -5 -12 -2 -15 2 -3 7 2 10 11 7 17 1 20 -8 4z"/>
<path d="M524 959 c-4 -7 -3 -9 4 -5 5 3 13 0 15 -6 4 -9 6 -10 6 -1 1 17 -16
25 -25 12z"/>
<path d="M6459 948 c-7 -23 -5 -39 4 -45 7 -3 9 -3 5 2 -4 4 1 15 10 24 10 9
13 13 8 9 -14 -11 -28 -10 -21 2 3 6 4 10 1 10 -3 0 -6 -1 -7 -2z"/>
<path d="M513 925 c0 -8 4 -12 9 -9 5 3 6 10 3 15 -9 13 -12 11 -12 -6z"/>
<path d="M553 923 c4 -3 1 -13 -6 -21 -11 -13 -9 -14 10 -2 22 14 22 30 1 30
-6 0 -8 -3 -5 -7z"/>
<path d="M594 896 c1 -8 5 -18 8 -22 4 -3 5 1 4 10 -1 8 -5 18 -8 22 -4 3 -5
-1 -4 -10z"/>
<path d="M6413 884 c8 -9 47 -13 51 -6 2 4 -9 8 -25 8 -17 1 -28 0 -26 -2z"/>
<path d="M530 840 c0 -5 5 -10 11 -10 5 0 7 5 4 10 -3 6 -8 10 -11 10 -2 0 -4
-4 -4 -10z"/>
<path d="M566 842 c-2 -4 4 -8 14 -8 10 0 16 4 14 8 -3 4 -9 8 -14 8 -5 0 -11
-4 -14 -8z"/>
<path d="M630 841 c0 -10 19 -25 25 -20 1 2 -3 10 -11 17 -8 7 -14 8 -14 3z"/>
<path d="M6356 842 c-3 -4 4 -9 15 -9 23 -2 25 3 4 10 -8 4 -16 3 -19 -1z"/>
<path d="M670 805 c0 -8 4 -15 10 -15 5 0 7 7 4 15 -4 8 -8 15 -10 15 -2 0 -4
-7 -4 -15z"/>
<path d="M6360 811 c0 -6 4 -13 10 -16 6 -3 7 1 4 9 -7 18 -14 21 -14 7z"/>
<path d="M587 799 c7 -7 15 -10 18 -7 3 3 -2 9 -12 12 -14 6 -15 5 -6 -5z"/>
<path d="M695 780 c-3 -5 -1 -18 5 -27 9 -15 10 -14 4 6 -4 17 -3 21 6 16 9
-5 11 -4 6 3 -9 15 -13 15 -21 2z"/>
<path d="M6371 764 c0 -11 3 -14 6 -6 3 7 2 16 -1 19 -3 4 -6 -2 -5 -13z"/>
<path d="M731 758 c-1 -21 15 -32 25 -17 4 7 3 9 -4 5 -6 -3 -13 2 -15 11 -4
16 -5 16 -6 1z"/>
<path d="M616 747 c3 -10 9 -15 12 -12 3 3 0 11 -7 18 -10 9 -11 8 -5 -6z"/>
<path d="M6311 727 c-13 -21 -12 -21 5 -5 10 10 16 20 13 22 -3 3 -11 -5 -18
-17z"/>
<path d="M6410 741 c0 -6 4 -13 10 -16 6 -3 7 1 4 9 -7 18 -14 21 -14 7z"/>
<path d="M646 718 c3 -5 10 -6 15 -3 13 9 11 12 -6 12 -8 0 -12 -4 -9 -9z"/>
<path d="M744 715 c-18 -15 -18 -15 0 -8 13 4 17 3 12 -5 -5 -8 -2 -10 9 -6
10 4 15 2 13 -7 -2 -8 3 -14 11 -14 8 0 15 6 17 13 1 7 0 8 -3 2 -2 -5 -9 -10
-14 -10 -6 0 -7 5 -4 10 3 6 -1 13 -9 16 -9 3 -13 10 -10 15 8 13 0 11 -22 -6z"/>
<path d="M6247 719 c7 -7 15 -10 18 -7 3 3 -2 9 -12 12 -14 6 -15 5 -6 -5z"/>
<path d="M6230 691 c0 -5 7 -11 14 -14 10 -4 13 -1 9 9 -6 15 -23 19 -23 5z"/>
<path d="M706 682 c-3 -5 1 -9 9 -9 8 0 15 4 15 9 0 4 -4 8 -9 8 -6 0 -12 -4
-15 -8z"/>
<path d="M6176 673 c-4 -9 -4 -18 -1 -21 2 -3 7 3 11 12 3 9 10 14 14 11 5 -3
11 -2 14 3 2 4 -4 8 -14 9 -10 1 -21 -5 -24 -14z"/>
<path d="M810 665 c-14 -8 -20 -14 -15 -14 6 0 21 6 35 14 14 8 21 14 15 14
-5 0 -21 -6 -35 -14z"/>
<path d="M6213 654 c-3 -8 -1 -20 5 -26 8 -8 9 -5 5 11 -4 17 -2 20 11 15 9
-3 16 -4 16 -1 0 14 -31 15 -37 1z"/>
<path d="M873 639 c-2 -23 3 -25 10 -4 4 8 3 16 -1 19 -4 3 -9 -4 -9 -15z"/>
<path d="M767 639 c7 -7 15 -10 18 -7 3 3 -2 9 -12 12 -14 6 -15 5 -6 -5z"/>
<path d="M827 631 c-4 -17 -3 -21 5 -13 5 5 8 16 6 23 -3 8 -7 3 -11 -10z"/>
<path d="M736 627 c3 -10 9 -15 12 -12 3 3 0 11 -7 18 -10 9 -11 8 -5 -6z"/>
<path d="M890 626 c0 -10 71 -47 83 -43 6 3 3 6 -8 6 -17 1 -18 3 -5 12 12 8
10 9 -7 4 -19 -5 -22 -3 -17 12 4 13 3 15 -4 4 -7 -9 -12 -10 -16 -2 -7 10
-26 16 -26 7z"/>
<path d="M6246 618 c3 -5 10 -6 15 -3 13 9 11 12 -6 12 -8 0 -12 -4 -9 -9z"/>
<path d="M793 595 c0 -8 4 -12 9 -9 4 3 8 9 8 15 0 5 -4 9 -8 9 -5 0 -9 -7 -9
-15z"/>
<path d="M850 603 c0 -5 14 -9 31 -9 35 -2 33 5 -5 12 -14 2 -26 1 -26 -3z"/>
<path d="M6050 599 c0 -5 11 -11 25 -15 14 -3 22 -11 18 -17 -3 -6 -1 -7 5 -3
17 10 15 13 -18 30 -16 8 -30 10 -30 5z"/>
<path d="M6112 598 c2 -6 10 -13 16 -14 7 -1 8 0 2 3 -5 2 -8 9 -4 14 3 5 0 9
-6 9 -7 0 -10 -5 -8 -12z"/>
<path d="M6193 595 c0 -8 4 -12 9 -9 4 3 8 9 8 15 0 5 -4 9 -8 9 -5 0 -9 -7
-9 -15z"/>
<path d="M6157 589 c7 -7 15 -10 18 -7 3 3 -2 9 -12 12 -14 6 -15 5 -6 -5z"/>
<path d="M994 575 c-4 -8 -10 -12 -15 -9 -5 3 -6 -2 -3 -11 5 -11 2 -14 -10
-9 -9 3 -16 4 -16 1 0 -3 7 -7 15 -11 10 -3 20 5 30 24 9 17 13 30 10 30 -3 0
-8 -7 -11 -15z"/>
<path d="M916 565 c4 -8 8 -15 10 -15 2 0 4 7 4 15 0 8 -4 15 -10 15 -5 0 -7
-7 -4 -15z"/>
<path d="M815 560 c3 -5 8 -10 11 -10 2 0 4 5 4 10 0 6 -5 10 -11 10 -5 0 -7
-4 -4 -10z"/>
<path d="M6119 568 c-6 -20 -6 -39 0 -42 4 -3 7 6 7 20 0 20 -4 32 -7 22z"/>
<path d="M876 552 c-2 -4 4 -8 14 -8 10 0 16 4 14 8 -3 4 -9 8 -14 8 -5 0 -11
-4 -14 -8z"/>
<path d="M6006 544 c-11 -8 -16 -14 -10 -14 13 0 39 18 34 24 -3 2 -14 -2 -24
-10z"/>
<path d="M999 540 c-3 -20 -4 -25 -13 -39 -7 -10 -3 -10 15 2 27 20 43 22 33
5 -4 -7 -3 -8 5 -4 17 11 2 28 -20 21 -14 -5 -17 -3 -13 9 3 9 3 16 0 16 -3 0
-7 -4 -7 -10z"/>
<path d="M5893 534 c-3 -10 -11 -22 -17 -26 -8 -5 -7 -8 1 -8 14 0 38 39 29
47 -3 3 -9 -3 -13 -13z"/>
<path d="M5966 537 c3 -10 9 -15 12 -12 3 3 0 11 -7 18 -10 9 -11 8 -5 -6z"/>
<path d="M6073 533 c0 -9 4 -10 14 -2 7 6 13 12 13 14 0 1 -6 2 -13 2 -8 0
-14 -6 -14 -14z"/>
<path d="M942 527 c12 -9 14 -17 7 -24 -6 -6 -5 -10 5 -10 20 0 13 27 -10 39
-17 9 -18 8 -2 -5z"/>
<path d="M6041 513 c-10 -26 -10 -27 4 -9 8 11 15 23 15 28 0 15 -7 8 -19 -19z"/>
<path d="M830 526 c0 -2 7 -7 16 -10 8 -3 12 -2 9 4 -6 10 -25 14 -25 6z"/>
<path d="M5843 517 c0 -7 -4 -20 -8 -29 -5 -12 -3 -18 6 -18 7 0 9 3 6 6 -3 4
-2 15 3 25 6 10 6 20 2 23 -5 3 -9 0 -9 -7z"/>
<path d="M5951 517 c-1 -11 -6 -15 -13 -11 -7 5 -8 3 -3 -5 10 -16 29 2 22 21
-4 8 -6 7 -6 -5z"/>
<path d="M1237 513 c-4 -3 -7 -11 -7 -17 0 -6 5 -5 12 2 6 6 9 14 7 17 -3 3
-9 2 -12 -2z"/>
<path d="M1055 501 c-6 -11 13 -26 22 -17 4 3 1 6 -6 6 -7 0 -9 5 -6 10 3 6 4
10 1 10 -3 0 -7 -4 -11 -9z"/>
<path d="M1256 494 c-7 -19 1 -34 17 -33 9 0 9 2 0 6 -7 2 -13 9 -13 13 0 14
53 6 58 -8 2 -8 -3 -10 -15 -6 -14 6 -15 4 -6 -6 6 -7 16 -9 22 -6 15 10 14
36 -1 38 -7 0 -17 2 -23 2 -5 1 -15 5 -21 9 -7 4 -15 0 -18 -9z"/>
<path d="M5973 503 c4 -6 2 -13 -4 -15 -7 -2 -6 -8 3 -16 12 -9 14 -8 13 8 -1
11 -5 23 -10 27 -4 5 -5 3 -2 -4z"/>
<path d="M6115 500 c3 -5 8 -10 11 -10 2 0 4 5 4 10 0 6 -5 10 -11 10 -5 0 -7
-4 -4 -10z"/>
<path d="M1358 493 c-10 -2 -18 -9 -18 -14 0 -6 8 -5 20 1 11 6 20 13 20 15 0
3 -1 4 -2 4 -2 -1 -11 -3 -20 -6z"/>
<path d="M5676 488 c3 -5 -2 -20 -10 -33 -9 -14 -12 -25 -6 -25 5 0 10 5 10
11 0 5 4 7 10 4 6 -4 7 1 3 12 -6 16 -5 16 10 4 11 -9 17 -10 17 -2 0 6 -4 11
-10 11 -5 0 -10 5 -10 10 0 15 33 8 46 -9 12 -15 34 -7 33 12 0 9 -2 9 -6 0
-2 -7 -9 -13 -14 -13 -6 0 -7 5 -4 10 7 11 6 11 -42 15 -18 1 -30 -2 -27 -7z"/>
<path d="M1030 481 c0 -6 4 -13 10 -16 6 -3 7 1 4 9 -7 18 -14 21 -14 7z"/>
<path d="M1090 480 c0 -5 5 -10 10 -10 6 0 10 5 10 10 0 6 -4 10 -10 10 -5 0
-10 -4 -10 -10z"/>
<path d="M1130 485 c0 -8 29 -12 39 -5 9 5 4 8 -13 8 -14 0 -26 -2 -26 -3z"/>
<path d="M1380 471 c-7 -11 -19 -17 -26 -14 -6 2 -15 0 -19 -6 -4 -7 0 -8 11
-4 12 4 15 3 10 -5 -4 -7 -1 -15 8 -18 9 -3 13 -11 9 -17 -4 -6 -1 -7 7 -2 10
6 10 10 -3 20 -14 10 -14 14 5 33 12 12 20 24 17 26 -3 3 -11 -3 -19 -13z"/>
<path d="M1415 464 c-26 -23 -28 -27 -14 -37 9 -7 15 -20 13 -29 -1 -11 3 -15
13 -11 12 5 12 7 1 14 -7 5 -8 9 -3 9 6 0 2 7 -7 14 -17 12 -17 14 3 32 21 19
22 19 15 -2 -4 -13 -1 -26 8 -33 22 -18 30 4 11 32 -8 13 -12 27 -8 30 17 18
-5 4 -32 -19z m45 -35 c0 -6 -4 -7 -10 -4 -5 3 -10 11 -10 16 0 6 5 7 10 4 6
-3 10 -11 10 -16z"/>
<path d="M1579 474 c-6 -8 -4 -14 6 -18 8 -3 15 -9 14 -13 -1 -4 -1 -15 0 -23
1 -13 3 -13 10 0 6 8 7 18 4 24 -4 5 1 7 11 3 10 -4 15 -3 11 3 -4 6 -14 9
-22 8 -9 -2 -18 2 -20 9 -6 16 48 7 60 -10 6 -8 7 -5 3 6 -4 12 -2 17 6 15 7
-3 13 -13 13 -23 0 -23 23 -32 31 -11 3 9 9 14 13 12 14 -9 30 9 21 24 -8 13
-10 13 -10 0 0 -9 -9 -16 -19 -17 -11 -1 -19 4 -17 10 1 7 1 9 -1 4 -3 -4 -10
-4 -16 0 -19 12 -87 10 -98 -3z m116 -24 c3 -5 1 -10 -4 -10 -6 0 -11 5 -11
10 0 6 2 10 4 10 3 0 8 -4 11 -10z"/>
<path d="M1789 474 c10 -21 6 -34 -10 -34 -5 0 -7 6 -5 13 1 6 1 9 -1 5 -3 -5
-11 -8 -18 -8 -17 0 -28 -17 -20 -30 4 -6 16 -5 34 5 16 8 32 11 36 7 5 -4 4
-1 0 7 -6 11 -4 13 11 7 16 -6 17 -5 4 6 -8 7 -20 20 -28 28 -11 13 -12 12 -3
-6z m-19 -38 c0 -2 -7 -6 -15 -10 -8 -3 -15 -1 -15 4 0 6 7 10 15 10 8 0 15
-2 15 -4z"/>
<path d="M1817 484 c-4 -4 1 -13 11 -20 21 -16 32 -17 32 -3 0 5 -4 8 -9 4 -6
-3 -14 2 -18 10 -5 9 -12 13 -16 9z"/>
<path d="M1868 475 c5 -11 8 -26 6 -33 -1 -7 0 -8 3 -2 2 5 9 10 14 10 6 0 8
-4 5 -9 -3 -5 1 -12 10 -15 22 -8 24 -8 24 6 0 6 -3 9 -6 5 -3 -3 -20 9 -36
26 -18 19 -26 24 -20 12z"/>
<path d="M1897 483 c-3 -5 3 -14 13 -21 15 -9 19 -8 24 4 9 24 7 31 -4 14 -8
-12 -11 -13 -19 -1 -5 7 -11 9 -14 4z"/>
<path d="M1957 470 c-15 -14 -16 -23 -8 -38 6 -11 7 -23 3 -28 -4 -5 0 -3 10
4 13 11 17 10 21 -3 4 -12 5 -12 3 2 0 9 -5 15 -10 14 -9 -3 -26 18 -26 32 0
5 4 6 9 3 5 -3 12 1 15 10 9 23 4 24 -17 4z"/>
<path d="M2002 478 c8 -5 9 -8 2 -8 -17 0 -25 -28 -12 -36 6 -4 8 -3 5 3 -9
14 19 37 34 27 7 -4 9 -3 5 4 -3 5 0 12 6 14 7 3 -2 5 -20 5 -21 0 -28 -3 -20
-9z"/>
<path d="M2059 474 c-6 -8 -4 -14 6 -17 9 -4 12 -13 9 -24 -5 -17 -5 -17 6 0
6 9 16 17 22 17 7 0 6 -5 -2 -15 -10 -12 -9 -16 4 -21 9 -3 14 -9 11 -13 -2
-4 2 -8 10 -8 22 0 18 15 -5 22 -11 4 -18 10 -15 15 3 5 13 7 23 3 11 -4 10 0
-5 11 -12 9 -27 15 -34 14 -6 -2 -13 2 -16 9 -6 16 48 7 60 -10 6 -8 7 -6 3 6
-4 14 -1 16 19 11 14 -3 25 -2 25 2 0 13 -110 11 -121 -2z"/>
<path d="M2210 478 c0 -10 -3 -17 -7 -17 -22 4 -32 -3 -27 -16 4 -8 10 -15 15
-15 4 0 5 7 2 17 -4 9 -2 14 3 10 17 -10 34 7 24 23 -8 13 -10 12 -10 -2z"/>
<path d="M2268 474 c9 -16 8 -26 -4 -42 -9 -13 -11 -22 -5 -22 6 0 11 5 11 11
0 5 4 8 8 5 4 -2 14 -1 22 4 11 7 8 14 -14 37 -22 21 -26 23 -18 7z m32 -28
c0 -3 -4 -8 -10 -11 -5 -3 -10 -1 -10 4 0 6 5 11 10 11 6 0 10 -2 10 -4z"/>
<path d="M2297 484 c-4 -4 1 -13 11 -20 21 -16 32 -17 32 -3 0 5 -4 8 -9 4 -6
-3 -14 2 -18 10 -5 9 -12 13 -16 9z"/>
<path d="M2348 474 c6 -12 8 -25 4 -29 -4 -5 -2 -5 5 -1 7 4 22 1 33 -6 18
-11 23 -10 36 6 8 11 14 16 14 10 0 -11 20 18 20 30 0 5 -11 -3 -25 -18 -30
-33 -36 -32 -70 2 -22 21 -26 23 -17 6z"/>
<path d="M2377 483 c-3 -5 3 -14 13 -21 15 -9 19 -8 24 4 9 24 7 31 -4 14 -8
-12 -11 -13 -19 -1 -5 7 -11 9 -14 4z"/>
<path d="M2478 482 c9 -3 2 -14 -18 -34 -18 -16 -29 -32 -26 -35 3 -3 17 9 32
26 15 19 33 30 41 27 8 -3 12 -2 8 3 -3 5 1 11 7 13 7 3 -3 5 -22 5 -19 0 -29
-2 -22 -5z"/>
<path d="M2541 476 c-9 -10 -8 -15 3 -19 11 -4 13 -1 9 10 -5 12 -3 14 7 8 9
-5 11 -4 6 3 -9 15 -11 15 -25 -2z"/>
<path d="M2580 478 c0 -4 6 -8 14 -8 8 0 17 4 20 8 2 4 -4 8 -15 8 -10 0 -19
-4 -19 -8z"/>
<path d="M2636 477 c-10 -8 -14 -20 -10 -34 7 -27 33 -38 40 -18 4 8 9 13 13
11 3 -2 11 2 17 8 9 10 5 13 -18 13 -16 0 -24 -3 -19 -6 6 -4 6 -12 2 -20 -7
-11 -11 -9 -21 9 -14 26 -9 33 25 33 14 0 25 2 25 6 0 12 -37 10 -54 -2z"/>
<path d="M2700 478 c0 -4 4 -8 9 -8 6 0 12 4 15 8 3 5 -1 9 -9 9 -8 0 -15 -4
-15 -9z"/>
<path d="M2752 459 c1 -17 4 -25 8 -18 6 8 9 8 12 -2 3 -8 9 -10 14 -6 5 5 1
13 -9 18 -9 6 -17 15 -17 21 0 6 11 3 25 -6 29 -19 35 -20 35 -5 0 5 -5 7 -10
4 -6 -3 -12 0 -15 7 -3 8 -14 14 -25 15 -15 1 -18 -5 -18 -28z"/>
<path d="M2828 474 c6 -12 8 -24 4 -28 -3 -4 1 -4 11 0 10 3 17 1 17 -5 0 -6
-9 -11 -19 -11 -25 0 -31 -10 -20 -35 9 -18 9 -18 5 3 -3 16 1 22 14 22 31 0
33 20 4 48 -22 22 -25 23 -16 6z"/>
<path d="M2857 483 c-3 -5 3 -14 13 -21 15 -9 19 -8 24 4 9 24 7 31 -4 14 -8
-12 -11 -13 -19 -1 -5 7 -11 9 -14 4z"/>
<path d="M2917 470 c-15 -14 -16 -23 -8 -38 6 -11 7 -23 3 -28 -4 -5 0 -3 10
4 13 11 17 10 21 -3 4 -12 5 -12 3 2 0 9 -5 15 -10 14 -9 -3 -26 18 -26 32 0
5 4 6 9 3 5 -3 12 1 15 10 9 23 4 24 -17 4z"/>
<path d="M2962 478 c8 -5 9 -8 2 -8 -17 0 -25 -28 -12 -36 6 -4 8 -3 5 3 -9
14 19 37 34 27 7 -4 9 -3 5 4 -3 5 0 12 6 14 7 3 -2 5 -20 5 -21 0 -28 -3 -20
-9z"/>
<path d="M3019 474 c-6 -8 -4 -14 6 -17 9 -4 12 -13 9 -24 -5 -17 -5 -17 6 0
6 9 16 17 22 17 7 0 6 -5 -2 -15 -10 -12 -9 -16 4 -21 9 -3 14 -9 11 -13 -2
-4 2 -8 10 -8 22 0 18 15 -5 22 -11 4 -18 10 -15 15 3 5 13 7 23 3 11 -4 10 0
-5 11 -12 9 -27 15 -34 14 -6 -2 -13 2 -16 9 -6 16 48 7 60 -10 6 -8 7 -6 3 6
-4 14 -1 16 19 11 14 -3 25 -2 25 2 0 13 -110 11 -121 -2z"/>
<path d="M3170 478 c0 -10 -3 -17 -7 -17 -22 4 -32 -3 -27 -16 4 -8 10 -15 15
-15 4 0 5 7 2 17 -4 9 -2 14 3 10 17 -10 34 7 24 23 -8 13 -10 12 -10 -2z"/>
<path d="M3228 474 c9 -16 8 -26 -4 -42 -9 -13 -11 -22 -5 -22 6 0 11 5 11 11
0 5 4 8 8 5 4 -2 14 -1 22 4 11 7 8 14 -14 37 -22 21 -26 23 -18 7z m32 -28
c0 -3 -4 -8 -10 -11 -5 -3 -10 -1 -10 4 0 6 5 11 10 11 6 0 10 -2 10 -4z"/>
<path d="M3257 484 c-4 -4 1 -13 11 -20 21 -16 32 -17 32 -3 0 5 -4 8 -9 4 -6
-3 -14 2 -18 10 -5 9 -12 13 -16 9z"/>
<path d="M3308 474 c6 -12 8 -25 4 -29 -4 -5 -2 -5 5 -1 7 4 22 1 33 -6 18
-11 23 -10 36 6 8 11 14 16 14 10 0 -11 20 18 20 30 0 5 -11 -3 -25 -18 -30
-33 -36 -32 -70 2 -22 21 -26 23 -17 6z"/>
<path d="M3337 483 c-3 -5 3 -14 13 -21 15 -9 19 -8 24 4 9 24 7 31 -4 14 -8
-12 -11 -13 -19 -1 -5 7 -11 9 -14 4z"/>
<path d="M3438 482 c9 -3 2 -14 -18 -34 -18 -16 -29 -32 -26 -35 3 -3 17 9 32
26 15 19 33 30 41 27 8 -3 12 -2 8 3 -3 5 1 11 7 13 7 3 -3 5 -22 5 -19 0 -29
-2 -22 -5z"/>
<path d="M3499 474 c-6 -8 -4 -14 6 -18 9 -3 13 -11 9 -17 -5 -8 -3 -9 6 -4 9
6 12 4 8 -6 -4 -11 1 -15 21 -15 34 1 51 13 50 34 0 14 -2 13 -9 -3 -9 -22
-10 -21 -14 12 -2 19 1 22 21 17 13 -4 23 -2 23 2 0 13 -110 11 -121 -2z m60
-3 c7 -1 11 -7 8 -15 -3 -7 0 -19 6 -26 9 -9 7 -11 -8 -8 -18 3 -55 38 -55 51
0 3 8 4 18 2 9 -2 23 -4 31 -4z"/>
<path d="M3630 479 c0 -17 35 -19 49 -2 10 11 11 13 2 5 -17 -14 -35 -16 -27
-4 3 5 -1 9 -9 9 -8 0 -15 -4 -15 -8z"/>
<path d="M3709 474 c9 -18 7 -25 -12 -38 -21 -15 -21 -16 -1 -7 12 6 25 7 29
3 5 -4 4 -1 0 7 -6 11 -4 13 11 7 16 -6 17 -5 4 6 -8 7 -20 20 -28 28 -11 13
-12 12 -3 -6z"/>
<path d="M3737 484 c-4 -4 1 -13 11 -20 21 -16 32 -17 32 -3 0 5 -4 8 -9 4 -6
-3 -14 2 -18 10 -5 9 -12 13 -16 9z"/>
<path d="M3787 475 c6 -11 9 -26 7 -33 -1 -7 0 -8 3 -2 2 5 9 10 14 10 6 0 8
-4 5 -9 -6 -10 39 -32 48 -24 10 10 7 33 -4 33 -5 0 -7 -7 -4 -15 10 -24 -2
-18 -42 23 -20 20 -32 28 -27 17z"/>
<path d="M3816 482 c-8 -13 -6 -14 36 -16 15 -1 25 1 22 5 -2 4 2 9 8 12 7 2
1 4 -14 3 -14 0 -24 -4 -21 -8 2 -5 0 -8 -6 -8 -5 0 -11 5 -13 12 -3 9 -6 9
-12 0z"/>
<path d="M4006 479 c6 -10 -24 -32 -46 -33 -11 0 -20 -5 -21 -11 0 -5 -10 -16
-22 -23 -19 -12 -19 -13 -2 -7 34 11 40 10 38 -2 -2 -7 4 -10 12 -7 12 5 10
10 -8 26 -19 17 -19 19 -3 14 12 -4 27 1 42 15 13 12 28 18 35 14 7 -5 10 -4
5 3 -3 5 0 12 6 15 7 2 1 4 -14 3 -14 0 -24 -4 -22 -7z"/>
<path d="M4326 479 c6 -10 -24 -32 -46 -33 -11 0 -20 -5 -21 -11 0 -5 -10 -16
-22 -23 -19 -12 -19 -13 -2 -7 34 11 40 10 38 -2 -2 -7 4 -10 12 -7 12 5 10
10 -8 26 -19 17 -19 19 -3 14 12 -4 27 1 42 15 13 12 28 18 35 14 7 -5 10 -4
5 3 -3 5 0 12 6 15 7 2 1 4 -14 3 -14 0 -24 -4 -22 -7z"/>
<path d="M4646 479 c6 -10 -24 -32 -46 -33 -11 0 -20 -5 -21 -11 0 -5 -10 -16
-22 -23 -19 -12 -19 -13 -2 -7 34 11 40 10 38 -2 -2 -7 4 -10 12 -7 12 5 10
10 -8 26 -19 17 -19 19 -3 14 12 -4 27 1 42 15 13 12 28 18 35 14 7 -5 10 -4
5 3 -3 5 0 12 6 15 7 2 1 4 -14 3 -14 0 -24 -4 -22 -7z"/>
<path d="M4966 479 c6 -10 -24 -32 -46 -33 -11 0 -20 -5 -21 -11 0 -5 -10 -16
-22 -23 -19 -12 -19 -13 -2 -7 34 11 40 10 38 -2 -2 -7 4 -10 12 -7 12 5 10
10 -8 26 -19 17 -19 19 -3 14 12 -4 27 1 42 15 13 12 28 18 35 14 7 -5 10 -4
5 3 -3 5 0 12 6 15 7 2 1 4 -14 3 -14 0 -24 -4 -22 -7z"/>
<path d="M5286 479 c6 -10 -24 -32 -46 -33 -11 0 -20 -5 -21 -11 0 -5 -10 -16
-22 -23 -19 -12 -19 -13 -2 -7 34 11 40 10 38 -2 -2 -7 4 -10 12 -7 12 5 10
10 -8 26 -19 17 -19 19 -3 14 12 -4 27 1 42 15 13 12 28 18 35 14 7 -5 10 -4
5 3 -3 5 0 12 6 15 7 2 1 4 -14 3 -14 0 -24 -4 -22 -7z"/>
<path d="M5341 476 c-14 -16 8 -29 37 -20 14 5 14 3 -2 -10 -11 -9 -15 -16 -9
-16 5 0 18 8 27 19 10 11 29 18 46 17 34 -2 58 -20 41 -30 -6 -4 -11 -2 -11 3
0 6 -5 11 -10 11 -6 0 -5 -8 2 -20 10 -16 14 -17 21 -5 4 8 15 11 23 8 9 -3 3
8 -12 24 -17 18 -33 27 -38 22 -12 -11 -29 -12 -23 -1 3 4 -6 8 -20 9 -16 0
-21 -2 -13 -7 7 -5 8 -10 2 -14 -5 -3 -15 1 -22 9 -15 19 -24 19 -39 1z m29
-6 c0 -5 -4 -10 -10 -10 -5 0 -10 5 -10 10 0 6 5 10 10 10 6 0 10 -4 10 -10z"/>
<path d="M5502 468 c17 -17 19 -17 36 0 18 18 18 19 -18 19 -36 0 -36 -1 -18
-19z"/>
<path d="M5863 483 c9 -8 47 -11 47 -4 0 5 -11 9 -25 9 -14 0 -24 -2 -22 -5z"/>
<path d="M935 461 c-3 -5 -2 -12 3 -15 5 -3 9 1 9 9 0 17 -3 19 -12 6z"/>
<path d="M1120 466 c0 -2 7 -7 16 -10 8 -3 12 -2 9 4 -6 10 -25 14 -25 6z"/>
<path d="M1164 459 c-5 -8 -3 -9 6 -4 10 6 12 4 7 -8 -3 -9 -3 -18 1 -21 4 -3
8 4 9 14 2 23 -13 35 -23 19z"/>
<path d="M1225 459 c-5 -8 -4 -10 0 -6 5 4 14 -2 20 -14 11 -20 12 -20 19 -3
4 10 4 15 0 11 -4 -4 -12 1 -19 10 -10 13 -13 14 -20 2z"/>
<path d="M2232 449 c-22 -20 -22 -39 1 -39 7 0 6 4 -3 10 -14 9 -7 14 13 11 5
-1 6 3 3 8 -4 5 0 11 6 14 7 2 10 7 7 11 -3 3 -15 -3 -27 -15z"/>
<path d="M2725 460 c-3 -5 -1 -10 4 -10 6 0 11 5 11 10 0 6 -2 10 -4 10 -3 0
-8 -4 -11 -10z"/>
<path d="M3192 449 c-22 -20 -22 -39 1 -39 7 0 6 4 -3 10 -14 9 -7 14 13 11 5
-1 6 3 3 8 -4 5 0 11 6 14 7 2 10 7 7 11 -3 3 -15 -3 -27 -15z"/>
<path d="M3676 454 c-11 -8 -16 -14 -10 -14 13 0 39 18 34 24 -3 2 -14 -2 -24
-10z"/>
<path d="M5804 459 c-4 -7 -3 -9 4 -5 6 3 13 -2 15 -11 4 -16 5 -16 6 -1 1 21
-15 32 -25 17z"/>
<path d="M5850 448 c-10 -21 -10 -21 3 -6 8 10 18 14 22 10 5 -4 5 -1 1 6 -10
17 -14 15 -26 -10z"/>
<path d="M5919 468 c-5 -14 -4 -56 2 -53 4 3 6 13 5 23 -2 9 2 20 8 24 8 5 7
8 -1 8 -7 0 -13 -1 -14 -2z"/>
<path d="M2564 446 c-9 -10 -7 -15 7 -24 12 -8 19 -8 19 -2 0 5 -5 10 -11 10
-8 0 -8 5 1 15 15 18 0 20 -16 1z"/>
<path d="M2602 440 c0 -14 2 -19 5 -12 2 6 2 18 0 25 -3 6 -5 1 -5 -13z"/>
<path d="M3635 435 c31 -26 48 -26 22 -1 -8 8 -17 12 -21 9 -3 -4 -6 -1 -6 5
0 7 -6 12 -12 12 -7 -1 0 -12 17 -25z"/>
<path d="M5721 455 c0 -5 3 -16 8 -23 7 -11 9 -10 14 3 4 9 3 14 -2 10 -5 -3
-12 1 -14 7 -3 7 -6 9 -6 3z"/>
<path d="M995 441 c-3 -5 -2 -12 3 -15 5 -3 9 1 9 9 0 17 -3 19 -12 6z"/>
<path d="M2010 436 c0 -8 4 -17 9 -21 11 -6 45 25 36 33 -3 3 -12 -3 -21 -14
-13 -16 -15 -17 -10 -1 3 9 1 17 -4 17 -6 0 -10 -6 -10 -14z"/>
<path d="M2494 434 c5 -12 2 -15 -11 -10 -10 4 -14 4 -10 0 4 -4 -1 -13 -11
-21 -13 -11 -10 -11 14 1 28 14 43 46 21 46 -5 0 -6 -7 -3 -16z"/>
<path d="M2520 440 c0 -5 5 -10 10 -10 6 0 10 5 10 10 0 6 -4 10 -10 10 -5 0
-10 -4 -10 -10z"/>
<path d="M2970 436 c0 -8 4 -17 9 -21 11 -6 45 25 36 33 -3 3 -12 -3 -21 -14
-13 -16 -15 -17 -10 -1 3 9 1 17 -4 17 -6 0 -10 -6 -10 -14z"/>
<path d="M3454 434 c5 -12 2 -15 -11 -10 -10 4 -14 4 -10 0 4 -4 -1 -13 -11
-21 -13 -11 -10 -11 14 1 28 14 43 46 21 46 -5 0 -6 -7 -3 -16z"/>
<path d="M3480 440 c0 -5 5 -10 10 -10 6 0 10 5 10 10 0 6 -4 10 -10 10 -5 0
-10 -4 -10 -10z"/>
<path d="M3890 440 c8 -5 20 -10 25 -10 6 0 3 5 -5 10 -8 5 -19 10 -25 10 -5
0 -3 -5 5 -10z"/>
<path d="M4016 439 c3 -6 12 -8 19 -5 23 8 26 -8 4 -19 -19 -11 -19 -13 -5
-18 10 -4 15 -3 12 2 -3 5 0 11 7 14 16 6 49 -17 39 -28 -4 -5 -1 -5 6 -1 9 6
5 15 -16 35 -28 25 -79 41 -66 20z"/>
<path d="M4210 440 c8 -5 20 -10 25 -10 6 0 3 5 -5 10 -8 5 -19 10 -25 10 -5
0 -3 -5 5 -10z"/>
<path d="M4336 439 c3 -6 12 -8 19 -5 23 8 26 -8 4 -19 -19 -11 -19 -13 -5
-18 10 -4 15 -3 12 2 -3 5 0 11 7 14 16 6 49 -17 39 -28 -4 -5 -1 -5 6 -1 9 6
5 15 -16 35 -28 25 -79 41 -66 20z"/>
<path d="M4530 440 c8 -5 20 -10 25 -10 6 0 3 5 -5 10 -8 5 -19 10 -25 10 -5
0 -3 -5 5 -10z"/>
<path d="M4656 439 c3 -6 12 -8 19 -5 23 8 26 -8 4 -19 -19 -11 -19 -13 -5
-18 10 -4 15 -3 12 2 -3 5 0 11 7 14 16 6 49 -17 39 -28 -4 -5 -1 -5 6 -1 9 6
5 15 -16 35 -28 25 -79 41 -66 20z"/>
<path d="M4850 440 c8 -5 20 -10 25 -10 6 0 3 5 -5 10 -8 5 -19 10 -25 10 -5
0 -3 -5 5 -10z"/>
<path d="M4976 439 c3 -6 12 -8 19 -5 23 8 26 -8 4 -19 -19 -11 -19 -13 -5
-18 10 -4 15 -3 12 2 -3 5 0 11 7 14 16 6 49 -17 39 -28 -4 -5 -1 -5 6 -1 9 6
5 15 -16 35 -28 25 -79 41 -66 20z"/>
<path d="M5170 440 c8 -5 20 -10 25 -10 6 0 3 5 -5 10 -8 5 -19 10 -25 10 -5
0 -3 -5 5 -10z"/>
<path d="M5296 439 c3 -6 12 -8 19 -5 23 8 26 -8 4 -19 -19 -11 -19 -13 -5
-18 10 -4 15 -3 11 2 -10 17 20 18 45 2 20 -12 19 -10 -6 15 -29 27 -82 45
-68 23z"/>
<path d="M5410 446 c0 -2 12 -12 28 -21 l27 -18 -19 21 c-17 20 -36 29 -36 18z"/>
<path d="M5612 433 c2 -9 11 -17 21 -19 9 -1 15 2 11 7 -3 5 -10 6 -16 3 -7
-5 -9 -1 -5 9 3 10 2 17 -4 17 -6 0 -9 -7 -7 -17z"/>
<path d="M1322 427 c13 -10 15 -16 6 -25 -7 -7 -9 -12 -6 -12 3 0 11 6 17 14
10 12 8 17 -11 26 -20 10 -21 10 -6 -3z"/>
<path d="M1655 430 c6 -10 4 -12 -9 -7 -10 4 -15 3 -11 -3 3 -6 1 -10 -4 -10
-6 0 -11 -4 -11 -8 0 -5 7 -9 15 -9 8 0 13 3 10 5 -3 3 3 10 12 17 13 9 13 14
3 20 -9 6 -11 4 -5 -5z"/>
<path d="M2718 429 c13 -5 21 -13 17 -18 -3 -5 -1 -12 4 -15 5 -4 8 0 7 6 -3
23 -17 38 -34 37 -12 0 -10 -3 6 -10z"/>
<path d="M2875 420 c-4 -12 -11 -17 -18 -14 -7 4 -8 3 -4 -1 12 -13 36 -15 44
-3 4 7 1 8 -7 3 -9 -5 -10 -2 -5 14 3 11 4 21 1 21 -2 0 -8 -9 -11 -20z"/>
<path d="M5754 429 c-3 -6 -2 -15 3 -20 5 -5 9 -1 9 11 0 23 -2 24 -12 9z"/>
<path d="M1025 420 c-3 -6 1 -7 9 -4 18 7 21 14 7 14 -6 0 -13 -4 -16 -10z"/>
<path d="M1154 413 c16 -20 36 -23 36 -6 0 4 -3 3 -7 0 -3 -4 -16 1 -27 10
-21 18 -21 18 -2 -4z"/>
<path d="M1270 426 c0 -2 9 -6 20 -9 11 -3 18 -1 14 4 -5 9 -34 13 -34 5z"/>
<path d="M1710 423 c0 -6 8 -17 18 -24 16 -13 16 -13 2 6 -8 11 -16 22 -17 24
-2 2 -3 0 -3 -6z"/>
<path d="M1819 428 c-8 -34 -8 -51 0 -38 5 8 7 18 5 22 -3 4 4 8 16 8 12 0 19
-4 15 -9 -3 -5 -1 -12 4 -15 5 -4 8 2 7 11 -2 15 -44 33 -47 21z"/>
<path d="M2150 420 c0 -5 5 -10 10 -10 6 0 10 5 10 10 0 6 -4 10 -10 10 -5 0
-10 -4 -10 -10z"/>
<path d="M2358 423 c12 -2 20 -9 17 -14 -4 -5 1 -12 9 -15 9 -3 14 -9 11 -13
-2 -4 2 -8 10 -8 12 0 12 3 2 16 -10 12 -9 14 6 8 11 -4 16 -3 12 4 -4 5 -15
7 -26 4 -13 -4 -19 -2 -17 7 2 7 -7 13 -22 14 -22 2 -22 2 -2 -3z"/>
<path d="M3110 420 c0 -5 5 -10 10 -10 6 0 10 5 10 10 0 6 -4 10 -10 10 -5 0
-10 -4 -10 -10z"/>
<path d="M3318 423 c12 -2 20 -9 17 -14 -4 -5 1 -12 9 -15 9 -3 14 -9 11 -13
-2 -4 2 -8 10 -8 12 0 12 3 2 16 -10 12 -9 14 6 8 11 -4 16 -3 12 4 -4 5 -15
7 -26 4 -13 -4 -19 -2 -17 7 2 7 -7 13 -22 14 -22 2 -22 2 -2 -3z"/>
<path d="M3594 407 l-19 -22 24 20 c21 17 23 18 18 3 -3 -10 -3 -19 1 -22 4
-3 8 4 9 14 2 29 -12 32 -33 7z"/>
<path d="M3739 428 c-8 -34 -8 -51 0 -38 5 8 7 18 5 22 -3 4 4 8 16 8 12 0 19
-4 15 -9 -3 -5 -1 -12 4 -15 5 -4 8 2 7 11 -2 15 -44 33 -47 21z"/>
<path d="M3871 407 c-13 -21 -12 -21 5 -5 10 10 16 20 13 22 -3 3 -11 -5 -18
-17z"/>
<path d="M3990 420 c0 -5 5 -10 10 -10 6 0 10 5 10 10 0 6 -4 10 -10 10 -5 0
-10 -4 -10 -10z"/>
<path d="M4110 423 c0 -6 8 -17 18 -24 16 -13 16 -13 2 6 -8 11 -16 22 -17 24
-2 2 -3 0 -3 -6z"/>
<path d="M4191 407 c-13 -21 -12 -21 5 -5 10 10 16 20 13 22 -3 3 -11 -5 -18
-17z"/>
<path d="M4310 420 c0 -5 5 -10 10 -10 6 0 10 5 10 10 0 6 -4 10 -10 10 -5 0
-10 -4 -10 -10z"/>
<path d="M4430 423 c0 -6 8 -17 18 -24 16 -13 16 -13 2 6 -8 11 -16 22 -17 24
-2 2 -3 0 -3 -6z"/>
<path d="M4511 407 c-13 -21 -12 -21 5 -5 10 10 16 20 13 22 -3 3 -11 -5 -18
-17z"/>
<path d="M4630 420 c0 -5 5 -10 10 -10 6 0 10 5 10 10 0 6 -4 10 -10 10 -5 0
-10 -4 -10 -10z"/>
<path d="M4750 423 c0 -6 8 -17 18 -24 16 -13 16 -13 2 6 -8 11 -16 22 -17 24
-2 2 -3 0 -3 -6z"/>
<path d="M4831 407 c-13 -21 -12 -21 5 -5 10 10 16 20 13 22 -3 3 -11 -5 -18
-17z"/>
<path d="M4950 420 c0 -5 5 -10 10 -10 6 0 10 5 10 10 0 6 -4 10 -10 10 -5 0
-10 -4 -10 -10z"/>
<path d="M5070 423 c0 -6 8 -17 18 -24 16 -13 16 -13 2 6 -8 11 -16 22 -17 24
-2 2 -3 0 -3 -6z"/>
<path d="M5151 407 c-13 -21 -12 -21 5 -5 10 10 16 20 13 22 -3 3 -11 -5 -18
-17z"/>
<path d="M5270 420 c0 -5 5 -10 10 -10 6 0 10 5 10 10 0 6 -4 10 -10 10 -5 0
-10 -4 -10 -10z"/>
<path d="M5390 420 c0 -5 5 -10 10 -10 6 0 10 5 10 10 0 6 -4 10 -10 10 -5 0
-10 -4 -10 -10z"/>
<path d="M5670 420 c-13 -8 -12 -10 3 -10 9 0 17 5 17 10 0 12 -1 12 -20 0z"/>
<path d="M1791 404 c0 -11 3 -14 6 -6 3 7 2 16 -1 19 -3 4 -6 -2 -5 -13z"/>
<path d="M1881 404 c0 -11 3 -14 6 -6 3 7 2 16 -1 19 -3 4 -6 -2 -5 -13z"/>
<path d="M2310 411 c0 -17 21 -24 33 -12 9 9 7 10 -7 5 -13 -5 -17 -4 -12 4 4
7 2 12 -3 12 -6 0 -11 -4 -11 -9z"/>
<path d="M2542 412 c2 -8 7 -13 12 -12 5 1 13 -4 18 -12 8 -11 9 -11 6 0 -2 8
-7 13 -12 12 -5 -1 -13 4 -18 12 -8 11 -9 11 -6 0z"/>
<path d="M2693 401 c0 -11 5 -18 9 -15 4 3 5 11 1 19 -7 21 -12 19 -10 -4z"/>
<path d="M2761 404 c0 -11 3 -14 6 -6 3 7 2 16 -1 19 -3 4 -6 -2 -5 -13z"/>
<path d="M2790 411 c0 -6 4 -13 10 -16 6 -3 7 1 4 9 -7 18 -14 21 -14 7z"/>
<path d="M3270 411 c0 -17 21 -24 33 -12 9 9 7 10 -7 5 -13 -5 -17 -4 -12 4 4
7 2 12 -3 12 -6 0 -11 -4 -11 -9z"/>
<path d="M3500 413 c0 -6 5 -15 10 -18 6 -4 8 -10 5 -15 -3 -5 -1 -11 4 -14
12 -8 8 14 -7 39 -6 11 -12 15 -12 8z"/>
<path d="M3711 404 c0 -11 3 -14 6 -6 3 7 2 16 -1 19 -3 4 -6 -2 -5 -13z"/>
<path d="M3801 404 c0 -11 3 -14 6 -6 3 7 2 16 -1 19 -3 4 -6 -2 -5 -13z"/>
<path d="M1271 407 c2 -1 13 -9 24 -17 19 -14 19 -14 6 3 -7 9 -18 17 -24 17
-6 0 -8 -1 -6 -3z"/>
<path d="M1473 395 c0 -8 6 -16 13 -19 7 -3 10 2 7 15 -6 22 -20 26 -20 4z"/>
<path d="M1666 401 c-4 -5 3 -7 14 -4 23 6 26 13 6 13 -8 0 -17 -4 -20 -9z"/>
<path d="M1919 393 c-13 -16 -12 -17 4 -4 16 13 21 21 13 21 -2 0 -10 -8 -17
-17z"/>
<path d="M2006 397 c3 -10 9 -15 12 -12 3 3 0 11 -7 18 -10 9 -11 8 -5 -6z"/>
<path d="M2050 400 c0 -5 5 -10 10 -10 6 0 10 5 10 10 0 6 -4 10 -10 10 -5 0
-10 -4 -10 -10z"/>
<path d="M2188 403 c7 -3 16 -2 19 1 4 3 -2 6 -13 5 -11 0 -14 -3 -6 -6z"/>
<path d="M2610 402 c0 -4 10 -9 22 -9 18 -2 20 0 8 7 -18 12 -30 13 -30 2z"/>
<path d="M2667 391 c-4 -17 -3 -21 5 -13 5 5 8 16 6 23 -3 8 -7 3 -11 -10z"/>
<path d="M2966 397 c3 -10 9 -15 12 -12 3 3 0 11 -7 18 -10 9 -11 8 -5 -6z"/>
<path d="M3010 400 c0 -5 5 -10 10 -10 6 0 10 5 10 10 0 6 -4 10 -10 10 -5 0
-10 -4 -10 -10z"/>
<path d="M3148 403 c7 -3 16 -2 19 1 4 3 -2 6 -13 5 -11 0 -14 -3 -6 -6z"/>
<path d="M3640 396 c0 -8 4 -17 9 -20 5 -4 7 3 4 14 -6 23 -13 26 -13 6z"/>
<path d="M5415 401 c-3 -5 0 -13 6 -17 8 -4 9 -3 5 4 -11 19 5 14 21 -5 13
-16 13 -16 3 5 -11 23 -25 28 -35 13z"/>
<path d="M5586 402 c-2 -4 4 -8 14 -8 10 0 16 4 14 8 -3 4 -9 8 -14 8 -5 0
-11 -4 -14 -8z"/>
<path d="M5709 397 c6 -8 7 -18 3 -22 -4 -5 -1 -5 6 -1 10 6 10 11 1 22 -6 8
-14 14 -16 14 -3 0 0 -6 6 -13z"/>
<path d="M5990 399 c0 -5 5 -7 10 -4 6 3 10 8 10 11 0 2 -4 4 -10 4 -5 0 -10
-5 -10 -11z"/>
<path d="M1514 386 c1 -8 5 -18 8 -22 4 -3 5 1 4 10 -1 8 -5 18 -8 22 -4 3 -5
-1 -4 -10z"/>
<path d="M1746 383 c-6 -14 -5 -15 5 -6 7 7 10 15 7 18 -3 3 -9 -2 -12 -12z"/>
<path d="M2159 398 c-5 -18 -6 -38 -1 -34 7 8 12 36 6 36 -2 0 -4 -1 -5 -2z"/>
<path d="M2230 390 c-9 -6 -10 -10 -3 -10 6 0 15 5 18 10 8 12 4 12 -15 0z"/>
<path d="M3119 398 c-5 -18 -6 -38 -1 -34 7 8 12 36 6 36 -2 0 -4 -1 -5 -2z"/>
<path d="M3190 390 c-9 -6 -10 -10 -3 -10 6 0 15 5 18 10 8 12 4 12 -15 0z"/>
<path d="M3548 393 c7 -3 16 -2 19 1 4 3 -2 6 -13 5 -11 0 -14 -3 -6 -6z"/>
<path d="M3836 391 c-3 -5 1 -11 9 -14 9 -4 12 -1 8 9 -6 16 -10 17 -17 5z"/>
<path d="M3997 393 c-10 -9 -9 -23 1 -23 5 0 9 7 9 15 0 17 -1 18 -10 8z"/>
<path d="M4147 387 c-3 -7 3 -13 13 -13 10 0 16 6 13 13 -3 7 -9 13 -13 13 -4
0 -10 -6 -13 -13z"/>
<path d="M4317 393 c-10 -9 -9 -23 1 -23 5 0 9 7 9 15 0 17 -1 18 -10 8z"/>
<path d="M4467 387 c-3 -7 3 -13 13 -13 10 0 16 6 13 13 -3 7 -9 13 -13 13 -4
0 -10 -6 -13 -13z"/>
<path d="M4637 393 c-10 -9 -9 -23 1 -23 5 0 9 7 9 15 0 17 -1 18 -10 8z"/>
<path d="M4787 387 c-3 -7 3 -13 13 -13 10 0 16 6 13 13 -3 7 -9 13 -13 13 -4
0 -10 -6 -13 -13z"/>
<path d="M4957 393 c-10 -9 -9 -23 1 -23 5 0 9 7 9 15 0 17 -1 18 -10 8z"/>
<path d="M5107 387 c-3 -7 3 -13 13 -13 10 0 16 6 13 13 -3 7 -9 13 -13 13 -4
0 -10 -6 -13 -13z"/>
<path d="M1345 379 c-3 -4 2 -6 10 -5 21 3 28 13 10 13 -9 0 -18 -4 -20 -8z"/>
<path d="M1548 383 c7 -3 16 -2 19 1 4 3 -2 6 -13 5 -11 0 -14 -3 -6 -6z"/>
<path d="M1948 383 c7 -3 16 -2 19 1 4 3 -2 6 -13 5 -11 0 -14 -3 -6 -6z"/>
<path d="M2478 383 c7 -3 16 -2 19 1 4 3 -2 6 -13 5 -11 0 -14 -3 -6 -6z"/>
<path d="M2908 383 c7 -3 16 -2 19 1 4 3 -2 6 -13 5 -11 0 -14 -3 -6 -6z"/>
<path d="M3438 383 c7 -3 16 -2 19 1 4 3 -2 6 -13 5 -11 0 -14 -3 -6 -6z"/>
<path d="M5270 380 c0 -5 5 -10 10 -10 6 0 10 5 10 10 0 6 -4 10 -10 10 -5 0
-10 -4 -10 -10z"/>
<path d="M5348 383 c7 -3 16 -2 19 1 4 3 -2 6 -13 5 -11 0 -14 -3 -6 -6z"/>
<path d="M5810 379 c0 -5 5 -7 10 -4 6 3 10 8 10 11 0 2 -4 4 -10 4 -5 0 -10
-5 -10 -11z"/>
<path d="M5850 380 c0 -5 5 -10 11 -10 5 0 7 5 4 10 -3 6 -8 10 -11 10 -2 0
-4 -4 -4 -10z"/>
<path d="M1579 378 c-5 -9 -5 -48 -1 -43 6 6 11 45 5 45 -2 0 -4 -1 -4 -2z"/>
<path d="M1855 371 c-3 -5 -2 -12 3 -15 5 -3 9 1 9 9 0 17 -3 19 -12 6z"/>
<path d="M1890 376 c0 -2 8 -10 18 -17 15 -13 16 -12 3 4 -13 16 -21 21 -21
13z"/>
<path d="M1979 378 c-6 -20 -6 -39 0 -42 4 -3 7 6 7 20 0 20 -4 32 -7 22z"/>
<path d="M2594 369 c-3 -6 -2 -15 3 -20 5 -5 9 -1 9 11 0 23 -2 24 -12 9z"/>
<path d="M2735 370 c-4 -6 -11 -7 -17 -4 -7 4 -8 2 -4 -5 6 -9 11 -9 22 0 14
11 18 19 10 19 -3 0 -8 -5 -11 -10z"/>
<path d="M2939 378 c-6 -20 -6 -39 0 -42 4 -3 7 6 7 20 0 20 -4 32 -7 22z"/>
<path d="M3593 365 c0 -8 4 -12 9 -9 5 3 6 10 3 15 -9 13 -12 11 -12 -6z"/>
<path d="M3775 371 c-3 -5 -2 -12 3 -15 5 -3 9 1 9 9 0 17 -3 19 -12 6z"/>
<path d="M3823 362 c10 -10 14 -22 10 -27 -5 -4 -2 -5 5 -1 11 6 10 12 -4 27
-9 10 -19 19 -22 19 -3 0 2 -8 11 -18z"/>
<path d="M4119 378 c-5 -18 -6 -38 -1 -34 7 8 12 36 6 36 -2 0 -4 -1 -5 -2z"/>
<path d="M4439 378 c-5 -18 -6 -38 -1 -34 7 8 12 36 6 36 -2 0 -4 -1 -5 -2z"/>
<path d="M4759 378 c-5 -18 -6 -38 -1 -34 7 8 12 36 6 36 -2 0 -4 -1 -5 -2z"/>
<path d="M5079 378 c-5 -18 -6 -38 -1 -34 7 8 12 36 6 36 -2 0 -4 -1 -5 -2z"/>
<path d="M5575 371 c-3 -5 -2 -12 3 -15 5 -3 9 1 9 9 0 17 -3 19 -12 6z"/>
<path d="M1797 351 c-10 -14 -10 -14 4 -4 9 7 18 10 21 7 3 -3 8 -1 12 4 9 16
-24 9 -37 -7z"/>
<path d="M1933 351 c0 -11 5 -18 9 -15 4 3 5 11 1 19 -7 21 -12 19 -10 -4z"/>
<path d="M2225 360 c-3 -6 1 -7 9 -4 18 7 21 14 7 14 -6 0 -13 -4 -16 -10z"/>
<path d="M2820 366 c0 -2 8 -10 18 -17 15 -13 16 -12 3 4 -13 16 -21 21 -21
13z"/>
<path d="M2893 351 c0 -11 5 -18 9 -15 4 3 5 11 1 19 -7 21 -12 19 -10 -4z"/>
<path d="M3185 360 c-3 -6 1 -7 9 -4 18 7 21 14 7 14 -6 0 -13 -4 -16 -10z"/>
<path d="M3717 351 c-10 -14 -10 -14 4 -4 9 7 18 10 21 7 3 -3 8 -1 12 4 9 16
-24 9 -37 -7z"/>
<path d="M5391 365 c4 -3 19 -8 35 -11 16 -3 26 -2 23 1 -4 3 -19 8 -35 11
-16 3 -26 2 -23 -1z"/>
<path d="M5496 358 c3 -4 11 -5 19 -1 21 7 19 12 -4 10 -11 0 -18 -5 -15 -9z"/>
<path d="M2173 345 c0 -8 4 -12 9 -9 5 3 6 10 3 15 -9 13 -12 11 -12 -6z"/>
<path d="M2293 345 c0 -8 4 -12 9 -9 5 3 6 10 3 15 -9 13 -12 11 -12 -6z"/>
<path d="M2533 345 c0 -8 4 -12 9 -9 5 3 6 10 3 15 -9 13 -12 11 -12 -6z"/>
<path d="M3133 345 c0 -8 4 -12 9 -9 5 3 6 10 3 15 -9 13 -12 11 -12 -6z"/>
<path d="M3253 345 c0 -8 4 -12 9 -9 5 3 6 10 3 15 -9 13 -12 11 -12 -6z"/>
<path d="M3493 345 c0 -8 4 -12 9 -9 5 3 6 10 3 15 -9 13 -12 11 -12 -6z"/>
<path d="M1506 338 c3 -5 10 -6 15 -3 13 9 11 12 -6 12 -8 0 -12 -4 -9 -9z"/>
<path d="M1680 340 c-9 -6 -10 -10 -3 -10 6 0 15 5 18 10 8 12 4 12 -15 0z"/>
<path d="M2707 339 c7 -7 15 -10 18 -7 3 3 -2 9 -12 12 -14 6 -15 5 -6 -5z"/>
<path d="M3600 340 c-9 -6 -10 -10 -3 -10 6 0 15 5 18 10 8 12 4 12 -15 0z"/>
<path d="M3907 339 c7 -7 15 -10 18 -7 3 3 -2 9 -12 12 -14 6 -15 5 -6 -5z"/>
<path d="M4227 339 c7 -7 15 -10 18 -7 3 3 -2 9 -12 12 -14 6 -15 5 -6 -5z"/>
<path d="M4547 339 c7 -7 15 -10 18 -7 3 3 -2 9 -12 12 -14 6 -15 5 -6 -5z"/>
<path d="M4867 339 c7 -7 15 -10 18 -7 3 3 -2 9 -12 12 -14 6 -15 5 -6 -5z"/>
<path d="M5187 339 c7 -7 15 -10 18 -7 3 3 -2 9 -12 12 -14 6 -15 5 -6 -5z"/>
<path d="M2035 320 c3 -5 8 -10 11 -10 2 0 4 5 4 10 0 6 -5 10 -11 10 -5 0 -7
-4 -4 -10z"/>
<path d="M2110 319 c0 -5 5 -7 10 -4 6 3 10 8 10 11 0 2 -4 4 -10 4 -5 0 -10
-5 -10 -11z"/>
<path d="M2995 320 c3 -5 8 -10 11 -10 2 0 4 5 4 10 0 6 -5 10 -11 10 -5 0 -7
-4 -4 -10z"/>
<path d="M3070 319 c0 -5 5 -7 10 -4 6 3 10 8 10 11 0 2 -4 4 -10 4 -5 0 -10
-5 -10 -11z"/>
</g>
</svg>
